/* XPM */
char *east_twall_icon[] = {
/* width height ncolors chars FAR _per_pixel */
"40 40 18 2",
/* colors */
"`f c #7F4D34",
"`g c #7D4B32",
"`u c #865741",
"`x c #CC9275",
"ae c #67402C",
"bc c #7C4B32",
"bf c #AE7959",
"bg c #82533B",
"bp c #926740",
"bq c #804E35",
"br c #7E4C33",
"cf c #573423",
"cp c #B77F63",
"cq c #5E3926",
"cz c #643C28",
"da c #C78E72",
"dh c #7B4A31",
"dn c #BE8A6F",
/* pixels */
"`x`x`x`x`xbfdh`g`g`g`g`g`g`g`g`g`g`g`g`g`g`g`g`g`g`g`g`g`g`g`g`g`gbcczcfcfcfcfcf",
"`x`x`x`x`xbfbc`g`g`g`g`g`g`g`g`g`g`g`g`g`g`g`g`g`g`g`g`g`g`g`g`g`gbcczcfcfcfcfcf",
"`x`x`x`x`xbfdh`g`g`g`g`g`g`g`g`g`g`g`g`g`g`g`g`g`g`g`g`g`g`g`g`g`gbcczcfcfcfcfcf",
"`x`x`x`x`xbfbc`g`g`g`g`g`g`g`g`g`g`g`g`g`g`g`g`g`g`g`g`g`g`g`g`g`gbcczcfcfcfcfcf",
"`x`x`x`x`xbfdh`g`g`g`g`g`g`g`g`g`g`g`g`g`g`g`g`g`g`g`g`g`g`g`g`g`gbcczcfcfcfcfcf",
"dncpdndndnbpbc`g`g`g`g`g`g`g`g`g`g`g`g`g`g`g`g`g`g`g`g`g`g`g`g`g`gbcczcfcfcfcfcf",
"bqbgbqbqbqbg`f`g`g`g`g`g`g`g`g`g`g`g`g`g`g`g`g`g`g`g`g`g`g`g`g`g`gbcczcfcfcfcfcf",
"br`gbrbrbr`g`g`g`g`g`g`g`g`g`g`g`g`g`g`g`g`g`g`g`g`g`g`g`g`g`g`g`gbcczcfcfcfcfcf",
"`g`g`g`g`g`g`g`g`g`g`g`g`g`g`g`g`g`g`g`g`g`g`g`g`g`g`g`g`g`g`g`g`gbcczcfcfcfcfcf",
"`g`g`g`g`g`g`g`g`g`g`g`g`g`g`g`g`g`g`g`g`g`g`g`g`g`g`g`g`g`g`g`g`gbcczcfcfcfcfcf",
"`g`g`g`g`g`g`g`g`g`g`g`g`g`g`g`g`g`g`g`g`g`g`g`g`g`g`g`g`g`g`g`g`gbcczcfcfcfcfcf",
"`g`g`g`g`g`g`g`g`g`g`g`g`g`g`g`g`g`g`g`g`g`g`g`g`g`g`g`g`g`g`g`g`gbcczcfcfcfcfcf",
"`g`g`g`g`g`g`g`g`g`g`g`g`g`g`g`g`g`g`g`g`g`g`g`g`g`g`g`g`g`g`g`g`gbcczcfcfcfcfcf",
"`g`g`g`g`g`g`g`g`g`g`g`g`g`g`g`g`g`g`g`g`g`g`g`g`g`g`g`g`g`g`g`g`gbcczcfcfcfcfcf",
"`g`g`g`g`g`g`g`g`g`g`g`g`g`g`g`g`g`g`g`g`g`g`g`g`g`g`g`g`g`g`g`g`gbcczcfcfcfcfcf",
"`g`g`g`g`g`g`g`g`g`g`g`g`g`g`g`g`g`g`g`g`g`g`g`g`g`g`g`g`g`g`g`g`gbcczcfcfcfcfcf",
"`g`g`g`g`g`g`g`g`g`g`g`g`g`g`g`g`g`g`g`g`g`g`g`g`g`g`g`g`g`g`g`g`gbcczcfcfcfcfcf",
"`g`g`g`g`g`g`g`g`g`g`g`g`g`g`g`g`g`g`g`g`g`g`g`g`g`g`g`g`g`g`g`g`gbcczcfcfcfcfcf",
"`g`g`g`g`g`g`g`g`g`g`g`g`g`g`g`g`g`g`g`g`g`g`g`g`g`g`g`g`g`g`g`g`gbcczcfcfcfcfcf",
"`g`g`g`g`g`g`g`g`g`g`g`g`g`g`g`g`g`g`g`g`g`g`g`g`g`g`g`g`g`g`g`g`gbcczcfcfcfcfcf",
"`g`g`g`g`g`g`g`g`g`g`g`g`g`g`g`g`g`g`g`g`g`g`g`g`g`g`g`g`g`g`g`g`gbcczcfcfcfcfcf",
"`g`g`g`g`g`g`g`g`g`g`g`g`g`g`g`g`g`g`g`g`g`g`g`g`g`g`g`g`g`g`g`g`gbcczcfcfcfcfcf",
"`g`g`g`g`g`g`g`g`g`g`g`g`g`g`g`g`g`g`g`g`g`g`g`g`g`g`g`g`g`g`g`g`gbcczcfcfcfcfcf",
"`g`g`g`g`g`g`g`g`g`g`g`g`g`g`g`g`g`g`g`g`g`g`g`g`g`g`g`g`g`g`g`g`gbcczcfcfcfcfcf",
"`g`g`g`g`g`g`g`g`g`g`g`g`g`g`g`g`g`g`g`g`g`g`g`g`g`g`g`g`g`g`g`g`gbcczcfcfcfcfcf",
"`g`g`g`g`g`g`g`g`g`g`g`g`g`g`g`g`g`g`g`g`g`g`g`g`g`g`g`g`g`g`g`g`gbcczcfcfcfcfcf",
"`g`g`g`g`g`g`g`g`g`g`g`g`g`g`g`g`g`g`g`g`g`g`g`g`g`g`g`g`g`g`g`g`gbcczcfcfcfcfcf",
"`g`g`g`g`g`g`g`g`g`g`g`g`g`g`g`g`g`g`g`g`g`g`g`g`g`g`g`g`g`g`g`g`gbcczcfcfcfcfcf",
"`g`g`g`g`g`g`g`g`g`g`g`g`g`g`g`g`g`g`g`g`g`g`g`g`g`g`g`g`g`g`g`g`gbcczcfcfcfcfcf",
"`g`g`g`g`g`g`g`g`g`g`g`g`g`g`g`g`g`g`g`g`g`g`g`g`g`g`g`g`g`g`g`g`gbcczcfcfcfcfcf",
"`g`g`g`g`g`g`g`g`g`g`g`g`g`g`g`g`g`g`g`g`g`g`g`g`g`g`g`g`g`g`g`g`gbcczcfcfcfcfcf",
"`g`g`g`g`g`g`g`g`g`g`g`g`g`g`g`g`g`g`g`g`g`g`g`g`g`g`g`g`g`g`g`g`gbcczcfcfcfcfcf",
"`g`g`g`g`g`g`g`g`g`g`g`g`g`g`g`g`g`g`g`g`g`g`g`g`g`g`g`g`g`g`g`g`gbcczcfcfcfcfcf",
"`g`g`g`g`g`g`g`g`g`g`g`g`g`g`g`g`g`g`g`g`g`g`g`g`g`g`g`g`g`g`g`g`gbcczcfcfcfcfcf",
"aeaeaeaeae`u`g`g`g`g`g`g`g`g`g`g`g`g`g`g`g`g`g`g`g`g`g`g`g`g`g`g`gbcczcfcfcfcfcf",
"cfcfcfcqbpbf`g`g`g`g`g`g`g`g`g`g`g`g`g`g`g`g`g`g`g`g`g`g`g`g`g`g`gbcczcfcfcfcfcf",
"cfcfcqbp`xbfdh`g`g`g`g`g`g`g`g`g`g`g`g`g`g`g`g`g`g`g`g`g`g`g`g`g`gbcczcfcfcfcfcf",
"cfcqbpdadabf`g`g`g`g`g`g`g`g`g`g`g`g`g`g`g`g`g`g`g`g`g`g`g`g`g`g`gbcczcfcfcfcfcf",
"cqbp`x`x`xbfdh`g`g`g`g`g`g`g`g`g`g`g`g`g`g`g`g`g`g`g`g`g`g`g`g`g`gbcczcfcfcfcfcf",
"bp`x`x`xdabf`g`g`g`g`g`g`g`g`g`g`g`g`g`g`g`g`g`g`g`g`g`g`g`g`g`g`gbcczcfcfcfcfcf"
};
