/* XPM */
char *goal_icon[] = {
/* width height ncolors chars_per_pixel */
"40 40 20 2",
/* colors */
"`e c #D9D98C",
"`o c #585856",
"ah c #595956",
"ap c #5C5C69",
"at c #DDDD8E",
"av c #939363",
"az c #5A5A56",
"bj c #979770",
"bn c #DADA8D",
"bu c #9E9E73",
"cg c #947376",
"ch c #DBDB8D",
"cl c #585855",
"cn c #D7D78C",
"ct c #545454",
"df c #D8D88C",
"dg c #D6D68A",
"dj c #9C9C72",
"dl c #555554",
"dp c #DFDF8F",
/* pixels */
"bjdgdpdpdpdpdpdpdpatbuazdlctctctctctctdlbjdgdpdpdpdpdpdpdpatbuazctctctctctctctct",
"dlbjcndpdpdpdpdpdpdpatbuazctctctctctctctahbj`edpdpdpdpdpdpdpdfbjahctctctctctctct",
"ct`objdgdpdpdpdpdpdpdpbnbuazctctctctctctctazdj`edpdpdpdpdpdpdpdfbjahctctctctctct",
"ctctdlbjcndpdpdpdpdpdpdpbndjazctctctctctctctahdj`edpdpdpdpdpdpdpdfbjahctctctctct",
"ctctct`objcndpdpdpdpdpdpdpbndjazctctctctctctctazdjbndpdpdpdpdpdpdpdfbjahctctctct",
"ctctctct`objdfdpdpdpdpdpdpdpbndjazctctctctctctctahdj`edpdpdpdpdpdpdpcnbjahctctct",
"ctctctctct`objcndpdpdpdpdpdpdpbndjazctctctctctctctazdjbndpdpdpdpdpdpdpdfbjahctct",
"ctctctctctct`objdfdpdpdpdpdpdpdpbndjazctctctctctctctazdjbndpdpdpdpdpdpdpcnbjahct",
"ctctctctctctctahbjdfdpdpdpdpdpdpdp`edjazctctctctctctctazdjbndpdpdpdpdpdpdpdfbj`o",
"clctctctctctctct`objdfdpdpdpdpdpdpdpdfdjazctctctctctctctazdjbndpdpdpdpdpdpdpdfdj",
"bjazctctctctctctctahbjdfdpdpdpdpdpdpdp`edjazctctctctctctctazdjbndpdpdpdpdpdpdpat",
"chbuazctctctctctctctahbjdfdpdpdpdpdpdpdpdfdjazctctctctctctctazdjbndpdpdpdpdpdpdp",
"dpchbuazdlctctctctctctahbjdfdpdpdpdpdpdpdp`ebjazctctctctctctctazbubndpdpdpdpdpdp",
"dpdpatbuazctctctctctctctahbj`edpdpdpdpdpdpdpbnbjazctctctctctctctazbubndpdpdpdpdp",
"dpdpdpchbuazctctctctctctctahbj`edpdpdpdpdpdpdp`ebjahctctctctctctctazbubndpdpdpdp",
"dpdpdpdpchbuazctctctctctctctahbj`edpdpdpdpdpdpdpbnbjazctctctctctctctazbubndpdpdp",
"dpdpdpdpdpbnbuazctctctctctctctahbj`edpdpdpdpdpdpdp`ebjahctctctctctctctazbubndpdp",
"dpdpdpdpdpdpbnbuazctctctctctctctahbj`edpdpdpdpdpdpdp`ebjahctctctctctctctazbubndp",
"dpdpdpdpdpdpdpbndjahctctctctctctctazbj`edpdpdpdpdpdpdp`ebjahctctctctctctctazbubn",
"atdpdpdpdpdpdpdpcnbjazctctctctctctctazbj`edpdpdpdpdpdpdp`ebjahctctctctctctctazbj",
"djcndpdpdpdpdpdpdpcnbuazctctctctctctctazbj`edpdpdpdpdpdpdp`ebjahctctctctctctctcl",
"`objcndpdpdpdpdpdpdpbnbuazctctctctctctctazbj`edpdpdpdpdpdpdpdfbjahctctctctctctct",
"ct`objdgdpdpdpdpdpdpdpbnbuazctctctctctctctazdj`edpdpdpdpdpdpdpdfbjahctctctctctct",
"ctctdlbjcndpdpdpdpdpdpdpbndjazctctctctctctctahdj`edpdpdpdpdpdpdpdfbjahctctctctct",
"ctctct`odjchdpdpdpdpdpdpdpbndjazctctctctctctctazdjbndpdpdpdpdpdpdpdfbjahctctctct",
"ctctctctazbuchdpdpdpdpdpdpdpbndjazctctctctctctctahdj`edpdpdpdpdpdpdpcnbjahctctct",
"ctctctctctazbuchdpdpdpdpdpdpdpbndjazctctctctctctctazdjbndpdpdpdpdpdpdpdfbjahctct",
"ctctctctct`oazbuchdpdpdpdpdpdpdpbndjazctctctctctctctazdjbndpdpdpdpdpdpdpcnbjahct",
"ctctctctctctdlazbuatdpdpdpdpdpdpdp`ebj`octctctctctctctazdjbndpdpdpdpdpdpdpdfbj`o",
"dlctctctctctct`oazbuchdpdpdpdpdpdpdpcnav`octctctctctctctazdjbndpdpdpdpdpdpdpdfdj",
"av`octctctctctctdlazbuatdpdpdpdpdpdpdpcnbjctctctctctctctctazdjbndpdpdpdpdpdpdpat",
"dgbj`octctctctctctahazbuchdpdpdpdpdpdpbndgavclctctctctctctctazdjbndpdpdpdpdpdpdp",
"dpcnbjdlctctctctctctdlazbuatdpdpdpdpdpdpatdgavctctctctctctctctazbubndpdpdpdpdpdp",
"dpatdgbj`octctctctctdlazazbuchdpdpdpdpdpdpbncnav`octctctctctctctazbubndpdpdpdpdp",
"dpdpdpcnbjdlctctctctctctdlazbudpdpdpdpdpdpdpdpcnavctctctctctctctctazbubndpdpdpdp",
"dpdpdpatdgbj`octctctctctdlazazbuchdpdpdpdpdpdpbncnav`octctctctctctctazbubndpdpdp",
"dpdpdpdpdpcnbjdlctctctctctct`oazbudpdpdpdpdpdpdpatcnavctctctctctctctctazbubndpdp",
"dpdpdpdpdpatdgbj`octctctctctdlazazbuatdpdpdpdpdpdpbncnav`octctctctctctctazbubndp",
"dpdpdpdpdpdpdpdgbjdlctctctctctct`oazbudpdpdpdpdpdpdpatcnavctctctctctctctctazbubn",
"dpdpdpdpdpdpdpchdgavdlctctctctctdlazapbudpdpdpdpdpdpdpcndgcgdlctctctctctctdlazbu"
};
