/* XPM */
char *lonewall_icon[] = {
/* width height ncolors chars_per_pixel */
"40 40 20 2",
/* colors */
"`f c #7F4D34",
"`g c #7D4B32",
"`u c #865741",
"`x c #CC9275",
"ae c #67402C",
"ax c #F3E6DF",
"bc c #7C4B32",
"bp c #926740",
"bq c #804E35",
"br c #7E4C33",
"c` c #B27A5F",
"cf c #573423",
"cm c #CFBAB6",
"cn c #D7D78C",
"cp c #B77F63",
"cq c #5E3926",
"cz c #643C28",
"da c #C78E72",
"dg c #D6D68A",
"dn c #BE8A6F",
/* pixels */
"axcm`x`x`x`x`x`x`x`x`x`x`x`x`x`x`x`x`x`x`x`x`x`x`x`x`x`x`x`x`x`x`x`x`x`x`x`xdabp",
"cmaxcm`x`x`x`x`x`x`x`x`x`x`x`x`x`x`x`x`x`x`x`x`x`x`x`x`x`x`x`x`x`x`x`x`x`x`xbpcq",
"`xdgax`x`x`x`x`x`x`x`x`x`x`x`x`x`x`x`x`x`x`x`x`x`x`x`x`x`x`x`x`x`x`x`x`xdabpaecf",
"`x`xcmaxcm`x`x`x`x`x`x`x`x`x`x`x`x`x`x`x`x`x`x`x`x`x`x`x`x`x`x`x`x`x`x`xbpcqcfcf",
"`x`x`xcmax`x`x`x`x`x`x`x`x`x`x`x`x`x`x`x`x`x`x`x`x`x`x`x`x`x`x`x`x`xdabpaecfcfcf",
"`x`x`x`xcncmdncpcpcpcpcpcpcpcpcpcpcpcpcpcpcpcpcpcpcpcpcpcpcpcpcpcpcpbpcqcfcfcfcf",
"`x`x`x`x`xcpbqbqbqbqbqbqbqbqbqbqbqbqbqbqbqbqbqbqbqbqbqbqbqbqbqbqbqbqaecfcfcfcfcf",
"`x`x`x`x`xc`bqbr`g`g`g`g`g`g`g`g`g`g`g`g`g`g`g`g`g`g`g`g`g`g`g`gbcbcaecfcfcfcfcf",
"`x`x`x`x`xc``f`g`g`g`g`g`g`g`g`g`g`g`g`g`g`g`g`g`g`g`g`g`g`g`g`g`gbcczcfcfcfcfcf",
"`x`x`x`x`xc`br`g`g`g`g`g`g`g`g`g`g`g`g`g`g`g`g`g`g`g`g`g`g`g`g`g`gbcczcfcfcfcfcf",
"`x`x`x`x`xc``f`g`g`g`g`g`g`g`g`g`g`g`g`g`g`g`g`g`g`g`g`g`g`g`g`g`gbcczcfcfcfcfcf",
"`x`x`x`x`xc`br`g`g`g`g`g`g`g`g`g`g`g`g`g`g`g`g`g`g`g`g`g`g`g`g`g`gbcczcfcfcfcfcf",
"`x`x`x`x`xc``f`g`g`g`g`g`g`g`g`g`g`g`g`g`g`g`g`g`g`g`g`g`g`g`g`g`gbcczcfcfcfcfcf",
"`x`x`x`x`xc`br`g`g`g`g`g`g`g`g`g`g`g`g`g`g`g`g`g`g`g`g`g`g`g`g`g`gbcczcfcfcfcfcf",
"`x`x`x`x`xc`br`g`g`g`g`g`g`g`g`g`g`g`g`g`g`g`g`g`g`g`g`g`g`g`g`g`gbcczcfcfcfcfcf",
"`x`x`x`x`xc`br`g`g`g`g`g`g`g`g`g`g`g`g`g`g`g`g`g`g`g`g`g`g`g`g`g`gbcczcfcfcfcfcf",
"`x`x`x`x`xc`br`g`g`g`g`g`g`g`g`g`g`g`g`g`g`g`g`g`g`g`g`g`g`g`g`g`gbcczcfcfcfcfcf",
"`x`x`x`x`xc`br`g`g`g`g`g`g`g`g`g`g`g`g`g`g`g`g`g`g`g`g`g`g`g`g`g`gbcczcfcfcfcfcf",
"`x`x`x`x`xc`br`g`g`g`g`g`g`g`g`g`g`g`g`g`g`g`g`g`g`g`g`g`g`g`g`g`gbcczcfcfcfcfcf",
"`x`x`x`x`xc`br`g`g`g`g`g`g`g`g`g`g`g`g`g`g`g`g`g`g`g`g`g`g`g`g`g`gbcczcfcfcfcfcf",
"`x`x`x`x`xc`br`g`g`g`g`g`g`g`g`g`g`g`g`g`g`g`g`g`g`g`g`g`g`g`g`g`gbcczcfcfcfcfcf",
"`x`x`x`x`xc`br`g`g`g`g`g`g`g`g`g`g`g`g`g`g`g`g`g`g`g`g`g`g`g`g`g`gbcczcfcfcfcfcf",
"`x`x`x`x`xc`br`g`g`g`g`g`g`g`g`g`g`g`g`g`g`g`g`g`g`g`g`g`g`g`g`g`gbcczcfcfcfcfcf",
"`x`x`x`x`xc`br`g`g`g`g`g`g`g`g`g`g`g`g`g`g`g`g`g`g`g`g`g`g`g`g`g`gbcczcfcfcfcfcf",
"`x`x`x`x`xc`br`g`g`g`g`g`g`g`g`g`g`g`g`g`g`g`g`g`g`g`g`g`g`g`g`g`gbcczcfcfcfcfcf",
"`x`x`x`x`xc`br`g`g`g`g`g`g`g`g`g`g`g`g`g`g`g`g`g`g`g`g`g`g`g`g`g`gbcczcfcfcfcfcf",
"`x`x`x`x`xc`br`g`g`g`g`g`g`g`g`g`g`g`g`g`g`g`g`g`g`g`g`g`g`g`g`g`gbcczcfcfcfcfcf",
"`x`x`x`x`xc`br`g`g`g`g`g`g`g`g`g`g`g`g`g`g`g`g`g`g`g`g`g`g`g`g`g`gbcczcfcfcfcfcf",
"`x`x`x`x`xc`br`g`g`g`g`g`g`g`g`g`g`g`g`g`g`g`g`g`g`g`g`g`g`g`g`g`gbcczcfcfcfcfcf",
"`x`x`x`x`xc`br`g`g`g`g`g`g`g`g`g`g`g`g`g`g`g`g`g`g`g`g`g`g`g`g`g`gbcczcfcfcfcfcf",
"`x`x`x`x`xc`br`g`g`g`g`g`g`g`g`g`g`g`g`g`g`g`g`g`g`g`g`g`g`g`g`g`gbcczcfcfcfcfcf",
"`x`x`x`x`xc`br`g`g`g`g`g`g`g`g`g`g`g`g`g`g`g`g`g`g`g`g`g`g`g`g`g`gbcczcfcfcfcfcf",
"`x`x`x`x`xc`br`g`g`g`g`g`g`g`g`g`g`g`g`g`g`g`g`g`g`g`g`g`g`g`g`g`gbcczcfcfcfcfcf",
"`x`x`x`x`xc`brbcbcbcbcbcbcbcbcbcbcbcbcbcbcbcbcbcbcbcbcbcbcbcbcbcbcbcczcfcfcfcfcf",
"`x`x`x`xda`uaeczczczczczczczczczczczczczczczczczczczczczczczczczczczcqcfcfcfcfcf",
"`x`x`xdabpcqcfcfcfcfcfcfcfcfcfcfcfcfcfcfcfcfcfcfcfcfcfcfcfcfcfcfcfcfcfcfcfcfcfcf",
"`x`xda`ucqcfcfcfcfcfcfcfcfcfcfcfcfcfcfcfcfcfcfcfcfcfcfcfcfcfcfcfcfcfcfcfcfcfcfcf",
"`xdabpcqcfcfcfcfcfcfcfcfcfcfcfcfcfcfcfcfcfcfcfcfcfcfcfcfcfcfcfcfcfcfcfcfcfcfcfcf",
"da`ucqcfcfcfcfcfcfcfcfcfcfcfcfcfcfcfcfcfcfcfcfcfcfcfcfcfcfcfcfcfcfcfcfcfcfcfcfcf",
"`ucqcfcfcfcfcfcfcfcfcfcfcfcfcfcfcfcfcfcfcfcfcfcfcfcfcfcfcfcfcfcfcfcfcfcfcfcfcfcf",
};
