/* XPM */
char *man_icon[] = {
/* width height ncolors chars_per_pixel */
"40 40 43 2",
/* colors */
"`b c #E6E51B",
"`c c #514A35",
"`j c #BE8A4A",
"`o c #585856",
"`r c #525250",
"`t c #BC8C4B",
"`x c #CC9275",
"`y c #8D6737",
"`z c #555042",
"a` c #B68352",
"aa c #9A723D",
"af c #5D5543",
"al c #CAC829",
"an c #B98747",
"aq c #302E20",
"ar c #7D603A",
"au c #514A33",
"az c #5A5A56",
"bf c #AE7959",
"bg c #82533B",
"bl c #DAD741",
"bm c #58585D",
"bo c #565551",
"bp c #926740",
"bw c #514B38",
"bx c #5F4A28",
"by c #614B4B",
"cc c #B18340",
"cd c #715336",
"cf c #573423",
"cg c #947376",
"cj c #C4A03B",
"cl c #585855",
"co c #AB7F40",
"ct c #545454",
"da c #C78E72",
"di c #BBB720",
"dk c #8F872D",
"dl c #555554",
"dm c #504E45",
"do c #605D4E",
"dq c #766B3F",
"dr c #98793C",
/* pixels */
"ctctctctctctctctctctctctctctctctctctctctctctctctctctctctctctctctctctctctctctctct",
"ctctctctctctctctctctctctctctctctctctctctctctctctctctctctctctctctctctctctctctctct",
"ctctctctctctctctctctctctctctctdldodqdqcgdqdqdo`octctctctctctctctctctctctctctctct",
"ctctctctctctctctctctctctctdlazdrdacj`jcj`janaadqboctctctctctctctctctctctctctctct",
"ctctctctctctctctctctctctctclbfcjcj`j`jcccoaa`y`ycdctctctctctctctctctctctctctctct",
"ctctctctctctctctctctctctbmdqdrcf`yccanccdraabxcfauboctctctctctctctctctctctctctct",
"ctctctctctctctctctctctctctbfco`ccfcf`ycc`ybxaqaqcfafboctctctctctctctctctctctctct",
"ctctctctctctctctctctctctctbfcjcjdr`yarco`ybxararcdcdctctctctctctctctctctctctctct",
"ctctctctctctctctctctctctcta`cj`tdqdodrccdkcdaucd`ycdctctctctctctctctctctctctctct",
"ctctctctctctctctctctctctcta``xcjcjancccccoaa`y`y`yafctctctctctctctctctctctctctct",
"ctctctctctctctctctctctctctdrcjblcjaldididididkdk`ycd`rdlctctctctctctctctctctctct",
"ctctctctctctctctctctct`rbyccbl`b`b`b`b`baldididididrdoctctctctctctctctctctctctct",
"ctctctctctctctctctct`rbwauarcj`b`b`b`bdi`bdidididiarau`z`rctctctctctctctctctctct",
"ctctctctctctctctctctbwauaucdcc`b`b`bdi`baldidididkbxauau`zctctctctctctctctctctct",
"ctctctctctctctctct`r`cauauaucodi`b`bdialdididididkbxauauaudmctctctctctctctctctct",
"ctctctctctctctctct`zauauauauaaandi`bdi`bdididicjaaauauauaubw`rctctctctctctctctct",
"ctctctctctctctctctbwauauauaubp`jandidididididiccaaauauauau`c`rctctctctctctctctct",
"ctctctctctctctctctbwauauauau`y`j`jcjdidididiccanaaauauauauaudmctctctctctctctctct",
"ctctctctctctctct`rbwauauauau`y`j`j`jcjdidicccjanaaauauauauau`rboctctctctctctctct",
"ctctctctctctctct`rbwauauauau`y`j`j`jcccjccan`j`jccbwauauauaudmctctctctctctctctct",
"ctctctctctctctct`rbwauauauaubp`j`j`j`janan`j`j`jancdauauauau`rboctctctctctctctct",
"ctctctctctctctctbobwauauau`caa`j`j`jan`j`j`j`j`jancdauauauaudmctctctctctctctctct",
"ctctctctctctctctct`zauauauaucoanccanananananan`j`jbpauauauau`rboctctctctctctctct",
"ctctctctctctctctctdmauauauafcococcccccccccccanccandrauauauau`rctctctctctctctctct",
"ctctctctctctctctct`rbwauauaraacocococococococococococd`caubw`rctctctctctctctctct",
"ctctctctctctctctctct`zauaubpaaaaaaaaaaaacoaacoaacoaa`yauau`zctctctctctctctctctct",
"ctctctctctctctctctct`r`zar`yaaaaaabpaabpaabpaabpaaaaaacdbw`rboctctctctctctctctct",
"ctctctctctctctctctctctctar`y`y`y`y`y`y`y`y`y`y`y`y`y`y`ydoctctctctctctctctctctct",
"ctctctctctctctctctctctctctdo`y`y`y`y`y`y`y`y`y`y`y`y`yardldlctctctctctctctctctct",
"ctctctctctctctctctctctctctbodo`yaa`y`y`y`y`y`y`y`y`ydoctctctctctctctctctctctctct",
"ctctctctctctctctctctctctctctctdkdidkbg`y`y`y`y`ydidkafboctctctctctctctctctctctct",
"ctctctctctctctctctctctctctctafdkdiarbobobobodlafdkdidqctctctctctctctctctctctctct",
"ctctctctctctctctctctctctctctdodidibxbobodldldldldkdidkbwctctctctctctctctctctctct",
"ctctctctctctctctctctctctdl`rdkdidkafboctctctct`rdqdidkdoctctctctctctctctctctctct",
"ctctctctctctctctctctctctcldqdididkauazctctctctctdodididq`zdlctctctctctctctctctct",
"ctctctctctctctctctct`rdqdkdididkdidkdoctctctdldmdqdidididkdqdoctctctctctctctctct",
"ctctctctctctctctctdldodkdkdqdkdkdkdkdkafbodlbodqdidkdidkdkdkdk`zbodlctctctctctct",
"ctctctctctctctctctdlbo`r`rdmaudk`zbwafdqdo`rdodqauaudqdkafdmdmbodlctctctctctctct",
"ctctctctctctctctctctctctdlclbodm`rcl`r`r`rdlbo`rcl`rdmdoaf`rbodldlctctctctctctct",
"ctctctctctctctctctctctctdl`rdldldldldldldldldldl`rdlclbo`rdldlctctctctctctctctct",
};
