/* XPM */
static char * man_down_xpm[] = {
/* width height ncolors chars_per_pixel */
"40 40 5 2",
/* colors */
"  	c gray33",
". 	c black",
"X 	c #FFB0B0",
"o 	c #3299CC",
"O 	c white",
/* pixels */
"                                                                                ",
"                                                                                ",
"                                                                                ",
"                                                                                ",
"                                                                                ",
"                                                                                ",
"                                  . . . . . .                                   ",
"                                . X X X X X X .                                 ",
"                              . X X X X X X X X .                               ",
"                              . X X X X X X X X .                               ",
"                            . . . X X X X X X . . .                             ",
"                          . o o o . X X X X . o o o .                           ",
"                        . . . . . . . X X . . . . . . .                         ",
"                        . o o O O o . X X . o O O o o .                         ",
"                        . o o O O o . X X . o O O o o .                         ",
"                          . o o o . X X X X . o o o .                           ",
"                        . X . . . X X X X X X . . .   .                         ",
"                        . X X X X X X X X X X X X X X .                         ",
"                      . X X X X X X X X X X X X X X X X .                       ",
"                      . X . X X X X X X X X X X X X . X .                       ",
"                    . X X X X X X X X X X X X X X X X X X .                     ",
"                    . X . X X X X X X X X X X X X X X . X .                     ",
"                  . X X X X X X X X X X X X X X X X X X X X .                   ",
"                  . X X X X X X X X X X X X X X X X X X X X .                   ",
"                . X X . X X X X X X X X X X X X X X X X . X X .                 ",
"                . X X X X X X X X X X X X X X X X X X X X X X .                 ",
"                . X X X . X X X X X X X X X X X X X X X X X X .                 ",
"                . X X X X . X X X X X X X X X X X X . X X X X .                 ",
"                  . . . .   . . X X X X X X X X . .   . . . .                   ",
"                            . X . . . . . . . . X .                             ",
"                            . X X .         . X X .                             ",
"                            . X X .         . X X .                             ",
"                      . . . . X X .         . X X . . . .                       ",
"                  . . X X X X . X X .     . X X . X X X X . .                   ",
"                . X X X X X X X X X X . . X X X X X X X X X X .                 ",
"                . . . . . . . . . . . . . . . . . . . . . . . .                 ",
"                                                                                ",
"                                                                                ",
"                                                                                ",
"                                                                                "
};
