/* XPM */
static char * man_up_xpm[] = {
/* width height ncolors chars_per_pixel */
"40 40 4 2",
/* colors */
"   c gray33",
".  c #000000",
"X  c #FFB0B0",
"o  c #3299CC",
/* pixels */
"                                                                                ",
"                                                                                ",
"                                                                                ",
"                                                                                ",
"                                                                                ",
"                                                                                ",
"                                  . . . . . .                                   ",
"                                . X X X X X X .                                 ",
"                              . X X X X X X X X .                               ",
"                              . X X X X X X X X .                               ",
"                            . . X X X X X X X X . .                             ",
"                          . o . X X X X X X X X . o .                           ",
"                        . o . X X X X X X X X X X . o .                         ",
"                        . o . X X X X X X X X X X . o .                         ",
"                        . . X X X X X X X X X X X X . .                         ",
"                          . X X X X X X X X X X X X .                           ",
"                        . X X X X X X X X X X X X X X .                         ",
"                        . X X X X X X X X X X X X X X .                         ",
"                      . X X X X X X X X X X X X X X X X .                       ",
"                      . X X X X X X X X X X X X X X X X .                       ",
"                    . X X X X X X X X X X X X X X X X X X .                     ",
"                    . X X X X X X X X X X X X X X X X X X .                     ",
"                  . X X X X X X X X X X X X X X X X X X X X .                   ",
"                  . X X X X X X X X X X X X X X X X X X X X .                   ",
"                . X X X X X X X X X X X X X X X X X X X X X X .                 ",
"                . X X X X X X X X X X X X X X X X X X X X X X .                 ",
"                . X X X X X X X X X X X X X X X X X X X X X X .                 ",
"                . X X X X X X X X X X X X X X X X X X X X X X .                 ",
"                  . . . . . . . X X . . . . X X . . . . . . .                   ",
"                            . X X .         . X X .                             ",
"                            . X X .         . X X .                             ",
"                            . X X .         . X X .                             ",
"                      . . . . X X .         . X X . . . .                       ",
"                  . . X X . X X X X .     . X X X X . X X . .                   ",
"                . X X X X X X X X X X . . X X X X X X X X X X .                 ",
"                . . . . . . . . . . . . . . . . . . . . . . . .                 ",
"                                                                                ",
"                                                                                ",
"                                                                                ",
"                                                                                "
};
