/* XPM */
static char * man_left_xpm[] = {
/* width height ncolors chars_per_pixel */
"40 40 5 2",
/* colors */
"   c gray33",
".  c #000000",
"X  c #FFB0B0",
"o  c #FFFFFF",
"O  c #3299CC",
/* pixels */
"                                                                                ",
"                                                                                ",
"                                                                                ",
"                                                                                ",
"                                                                                ",
"                                                                                ",
"                                          . . . . .                             ",
"                                        . X X X X X .                           ",
"                                      . X X X X X X X .                         ",
"                                    . X X X X X X X X .                         ",
"                              . . . . . . X X X X X X .                         ",
"                            . o . o o o o . X X X X X .                         ",
"                            . . O O O O O . . X X X X .                         ",
"                            . X O O O o o o . X X X X .                         ",
"                          . X X O O O o o o . X X X X .                         ",
"                        . X X X X O o o o . X X X X X .                         ",
"                      . X X X X X X . . . X X X X X X .                         ",
"                    . X X X X X X X X X X X X X X X X .                         ",
"                  . X X X X X X X X X X X X X . . X X .                         ",
"                  . X X X X X X X X X X X X X X X . X .                         ",
"                . X X X X X X X X X X X X X X X X X .                           ",
"                . X X X X X X X X X X X X X X X X X .                           ",
"                . X X X X X X X X X X X X X X X X X X .                         ",
"                . X X X X X X X X X X X X X X X X X X .                         ",
"                . X X X X X X X X X X X X X X X X X X .                         ",
"                  . X X X X X X X X X X X X X X X X X .                         ",
"                  . X X X X X X X X X X X X X X X X X .                         ",
"                    . X X X X X X X X X . . . X X X .                           ",
"                      . . X X X X X . . . X . . . .                             ",
"                          . . . . . X X . X X .                                 ",
"                                  . X X . X X .                                 ",
"                                  . X X . X X .                                 ",
"                        . .   . . . . . X X X .                                 ",
"                    . . X . . X X X X X . X X X .                               ",
"                  . X X . X X X X X X X X X X X X .                             ",
"                  . . . . . . . . . . . . . . . . .                             ",
"                                                                                ",
"                                                                                ",
"                                                                                ",
"                                                                                "
};
