/* XPM */
char *northwall_icon[] = {
/* width height ncolors chars_per_pixel */
"40 40 24 2",
/* colors */
"`f c #7F4D34",
"`g c #7D4B32",
"`x c #CC9275",
"ae c #67402C",
"ar c #7D603A",
"ax c #F3E6DF",
"bc c #7C4B32",
"bg c #82533B",
"bp c #926740",
"bq c #804E35",
"br c #7E4C33",
"bu c #9E9E73",
"c` c #B27A5F",
"cd c #715336",
"cf c #573423",
"cm c #CFBAB6",
"cn c #D7D78C",
"cp c #B77F63",
"cq c #5E3926",
"cz c #643C28",
"da c #C78E72",
"dg c #D6D68A",
"dh c #7B4A31",
"dn c #BE8A6F",
/* pixels */
"axcm`x`x`x`x`x`x`x`x`x`x`x`x`xbu`x`x`x`x`x`x`x`x`x`x`x`x`x`x`x`x`x`x`x`x`x`xdabp",
"cmaxcm`x`x`x`x`x`x`x`x`x`x`x`x`x`x`x`x`x`x`x`x`x`x`x`x`x`x`x`x`x`x`x`x`x`x`xbpcq",
"`xdgax`x`x`x`x`x`x`x`x`x`x`x`x`x`x`x`x`x`x`x`x`x`x`x`x`x`x`x`x`x`x`x`x`xdabpaecf",
"`x`xcmaxcm`x`x`x`x`x`x`x`x`x`x`x`x`x`x`x`x`x`x`x`x`x`x`x`x`x`x`x`x`x`x`xbpcqcfcf",
"`x`x`xcmax`x`x`x`x`x`x`x`x`x`x`x`x`x`x`x`x`x`x`x`x`x`x`x`x`x`x`x`x`xdabpaecfcfcf",
"`x`x`x`xcncmdncpcpcpcpcpcpcpcpcpcpcpcpcpcpcpcpcpcpcpcpcpcpcpcpcpcpcpbpcqcfcfcfcf",
"`x`x`x`x`xcpbqbqbqbqbqbqbqbqbgbqbgbqar`fcdbgcdbgcdbgcdbgcdbqbqbqbqbqaecfcfcfcfcf",
"`x`x`x`x`xc`bqbr`gbrbrbcbrbcbcbcbcbcdh`gbr`g`g`g`g`g`g`gbrbrbrbcbcbcaecfcfcfcfcf",
"`x`x`x`x`xc``f`g`g`g`g`gbr`gbrbc`g`g`g`g`g`g`g`g`g`g`g`g`g`gbrbr`gbcczcfcfcfcfcf",
"`x`x`x`x`xc`br`g`g`g`g`g`g`g`g`g`g`g`g`g`g`g`g`g`g`g`g`g`g`g`g`g`gbcczcfcfcfcfcf",
"`x`x`x`x`xc``f`g`g`g`g`g`g`g`g`g`g`g`g`g`g`g`g`g`g`g`g`g`g`g`g`g`gbcczcfcfcfcfcf",
"`x`x`x`x`xc`br`g`g`g`g`g`g`g`g`g`g`g`g`g`g`g`g`g`g`g`g`g`g`g`g`g`gbcczcfcfcfcfcf",
"`x`x`x`x`xc``f`g`g`g`g`g`g`g`g`g`g`g`g`g`g`g`g`g`g`g`g`g`g`g`g`g`gbcczcfcfcfcfcf",
"`x`x`x`x`xc`br`g`g`g`g`g`g`g`g`g`g`g`g`g`g`g`g`g`g`g`g`g`g`g`g`g`gbcczcfcfcfcfcf",
"`x`x`x`x`xc`br`g`g`g`g`g`g`g`g`g`g`g`g`g`g`g`g`g`g`g`g`g`g`g`g`g`gbcczcfcfcfcfcf",
"`x`x`x`x`xc`br`g`g`g`g`g`g`g`g`g`g`g`g`g`g`g`g`g`g`g`g`g`g`g`g`g`gbcczcfcfcfcfcf",
"`x`x`x`x`xc`br`g`g`g`g`g`g`g`g`g`g`g`g`g`g`g`g`g`g`g`g`g`g`g`g`g`gbcczcfcfcfcfcf",
"`x`x`x`x`xc`br`g`g`g`g`g`g`g`g`g`g`g`g`g`g`g`g`g`g`g`g`g`g`g`g`g`gbcczcfcfcfcfcf",
"`x`x`x`x`xc`br`g`g`g`g`g`g`g`g`g`g`g`g`g`g`g`g`g`g`g`g`g`g`g`g`g`gbcczcfcfcfcfcf",
"`x`x`x`x`xc`br`g`g`g`g`g`g`g`g`g`g`g`g`g`g`g`g`g`g`g`g`g`g`g`g`g`gbcczcfcfcfcfcf",
"`x`x`x`x`xc`br`g`g`g`g`g`g`g`g`g`g`g`g`g`g`g`g`g`g`g`g`g`g`g`g`g`gbcczcfcfcfcfcf",
"`x`x`x`x`xc`br`g`g`g`g`g`g`g`g`g`g`g`g`g`g`g`g`g`g`g`g`g`g`g`g`g`gbcczcfcfcfcfcf",
"`x`x`x`x`xc`br`g`g`g`g`g`g`g`g`g`g`g`g`g`g`g`g`g`g`g`g`g`g`g`g`g`gbcczcfcfcfcfcf",
"`x`x`x`x`xc`br`g`g`g`g`g`g`g`g`g`g`g`g`g`g`g`g`g`g`g`g`g`g`g`g`g`gbcczcfcfcfcfcf",
"`x`x`x`x`xc`br`g`g`g`g`g`g`g`g`g`g`g`g`g`g`g`g`g`g`g`g`g`g`g`g`g`gbcczcfcfcfcfcf",
"`x`x`x`x`xc`br`g`g`g`g`g`g`g`g`g`g`g`g`g`g`g`g`g`g`g`g`g`g`g`g`g`gbcczcfcfcfcfcf",
"`x`x`x`x`xc`br`g`g`g`g`g`g`g`g`g`g`g`g`g`g`g`g`g`g`g`g`g`g`g`g`g`gbcczcfcfcfcfcf",
"`x`x`x`x`xc`br`g`g`g`g`g`g`g`g`g`g`g`g`g`g`g`g`g`g`g`g`g`g`g`g`g`gbcczcfcfcfcfcf",
"`x`x`x`x`xc`br`g`g`g`g`g`g`g`g`g`g`g`g`g`g`g`g`g`g`g`g`g`g`g`g`g`gbcczcfcfcfcfcf",
"`x`x`x`x`xc`br`g`g`g`g`g`g`g`g`g`g`g`g`g`g`g`g`g`g`g`g`g`g`g`g`g`gbcczcfcfcfcfcf",
"`x`x`x`x`xc`br`g`g`g`g`g`g`g`g`g`g`g`g`g`g`g`g`g`g`g`g`g`g`g`g`g`gbcczcfcfcfcfcf",
"`x`x`x`x`xc`br`g`g`g`g`g`g`g`g`g`g`g`g`g`g`g`g`g`g`g`g`g`g`g`g`g`gbcczcfcfcfcfcf",
"`x`x`x`x`xc`br`g`g`g`g`g`g`g`g`g`g`g`g`g`g`g`g`g`g`g`g`g`g`g`g`g`gbcczcfcfcfcfcf",
"`x`x`x`x`xc`br`g`g`g`g`g`g`g`g`g`g`g`g`g`g`g`g`g`g`g`g`g`g`g`g`g`gbcczcfcfcfcfcf",
"`x`x`x`x`xc`br`g`g`g`g`g`g`g`g`g`g`g`g`g`g`g`g`g`g`g`g`g`g`g`g`g`gbcczcfcfcfcfcf",
"`x`x`x`x`xc`br`g`g`g`g`g`g`g`g`g`g`g`g`g`g`g`g`g`g`g`g`g`g`g`g`g`gbcczcfcfcfcfcf",
"`x`x`x`x`xc`br`g`g`g`g`g`g`g`g`g`g`g`g`g`g`g`g`g`g`g`g`g`g`g`g`g`gbcczcfcfcfcfcf",
"`x`x`x`x`xc`br`g`g`g`g`g`g`g`g`g`g`g`g`g`g`g`g`g`g`g`g`g`g`g`g`g`gbcczcfcfcfcfcf",
"`x`x`x`x`xc`br`g`g`g`g`g`g`g`g`g`g`g`g`g`g`g`g`g`g`g`g`g`g`g`g`g`gbcczcfcfcfcfcf",
"`x`x`x`x`xc`br`g`g`g`g`g`g`g`g`g`g`g`g`g`g`g`g`g`g`g`g`g`g`g`g`g`gbcczcfcfcfcfcf"
};
