/* XPM */
char *object_icon[] = {
/* width height ncolors chars_per_pixel */
"40 40 43 2",
/* colors */
"`` c #000000",
"`a c #4C486F",
"`d c #1A172A",
"`h c #07060A",
"`k c #8A86A5",
"`l c #70709C",
"`m c #8D6EE7",
"`n c #3D3D56",
"`o c #585856",
"`p c #585681",
"`r c #525250",
"`w c #474766",
"ab c #B0A9B9",
"ag c #65658D",
"ah c #595956",
"aj c #6B6B96",
"ak c #393851",
"ap c #5C5C69",
"aq c #302E20",
"as c #0F0D1A",
"ax c #F3E6DF",
"ay c #000001",
"b` c #271D4F",
"ba c #423F45",
"bd c #9999C2",
"be c #373644",
"bh c #454562",
"bi c #7B7BA4",
"bk c #211845",
"bm c #58585D",
"bo c #565551",
"bt c #5F5F88",
"bz c #42425E",
"ca c #4E4E6D",
"ck c #27262F",
"cs c #3F3F5A",
"ct c #545454",
"d` c #8080B7",
"db c #514B4A",
"dd c #020103",
"de c #2F2F39",
"dl c #555554",
"dm c #504E45",
/* pixels */
"ctctctctctctctctctctctctctctctctctctctctctctctctctctctctctctctctctctctctctctctct",
"ctctctctctctctctctctctctctdlapapag`l`l`lajbtapbmdlctctctctctctctctctctctctctctct",
"ctctctctctctctctctctctbmag`kbdbdabbdbdbdbdd`d``lagapdlctctctctctctctctctctctctct",
"ctctctctctctctctctahajbdbdababbdbdbdbd`mbdd`d`bi`lajbtbmctctctctctctctctctctctct",
"ctctctctctctctctap`kababax`mabbdbdbd`mbdbdd`d`bi`lajbt`pcactctctctctctctctctctct",
"ctctctctctctbobtbdaxababbdbdabbdbdbdbdd`d`d`bi`l`lajbtbtca`w`rctctctctctctctctct",
"ctctctctctctbtabbdbdbdababbdbdbdbd`mbdd`d`d`bi`l`lajbtbt`pcabz`rctctctctctctctct",
"ctctctctbobtbdaxbdaxababbdbdbdbd`mbdbdd`d``ld``lajajag`p`pcabhakdbctctctctctctct",
"ctctctctbmbdbdbdbdbdbdbdbdbdbdbdbdd`d`d`d`d``l`l`lagagbt`pca`w`nbebactctctctctct",
"ctctct`od`bdaxababbdbdbdbdbd`mbd`md`d`d`d``l`l`lajajbt`p`pca`wcsbeckbectctctctct",
"ctctctapbdbdbdbdbdbdbdbdbd`mbdd`d`d`d`d``ld``l`lajbtbtbt`pca`wcsakckasba`rctctct",
"ctctctbdabababbdbdbdbd`mbdbdbdd`d`d`d`d``l`l`lajajagbt`pcaca`w`nakde`dasbactctct",
"ctctapbdbdbdbdbdbdbdbdbd`md`d`d`d`d``l`l`l`l`lajbtbtbt`pcacabhcsbedeck`haq`rctct",
"ctctbibdbdbdbdbdbdbd`mbdd`d`d`d`d`d``ld``l`lajagagbt`p`pca`abz`nakdede`ddddectct",
"ctctbibdbdbdbd`mbd`md`d`d`d`d`d``l`ld`aj`lajajbtbt`p`pcaca`wbzakbeb`beckddasboct",
"dlcabdbdbd`mbdbdbdd`d`d`d`d`d``ld``l`l`lajajagbtbt`p`pca`abh`nakakbebede`hddbact",
"ctapd``mbdbdbdd`d`d`d`d`d``ld``l`l`l`lajajbtbtbt`p`pcaca`wcs`nakbeakakbeas``ck`r",
"`oapd`bdbdd`d`d`d`d`d`d``ld``l`l`lajajajagbtbt`p`pcaca`wbh`nakakakakakakas``asdb",
"ctapd`d`d`d`d`d``l`l`l`l`l`l`l`l`lajagbtbtbt`p`pcacacabhcs`nakakakakakak`d```hba",
"dlapd`d`d`d``ld``ld``ld``l`lajajajajbtbtbt`p`p`pcacabhbz`nakakakak`n`nak`d``ddbe",
"ctbm`lbi`l`l`l`l`l`lajajajajajajbtbtbtbt`p`pcaca`w`wbz`nakak`n`n`ncscs`nas``ddde",
"ctbmaj`l`laj`lajajajajajajajbtbtbtbt`p`p`pcacaca`wbzcs`n`n`n`ncscsbzbz`nas````aq",
"ctctbtajagajagajajajbtajbtbtbtbt`p`p`pcacaca`abhbzcs`nak`ncscsbzbzbzbhak`h````ck",
"ctctcabtbtbtbtbtbtbtbtbtbtbt`p`p`p`p`pcaca`wbhbz`n`n`n`ncscsbzbzbhbh`wdedd``ddde",
"ctctbm`p`p`p`pbtbtbt`pbt`p`p`p`pcaca`a`w`w`wcs`n`n`n`ncsbzbzbhbhbh`wbh`d`````hba",
"ctctct`w`w`p`p`p`p`p`p`pca`pcacacaca`w`wbzcs`n`n`n`ncsbzbzbhbh`w`w`wcs`h`````hba",
"ctctctbh`w`w`aca`acacacacaca`a`w`wbhbzcs`nak`nakcscsbzbzbh`w`w`wca`wckdday```ddm",
"ctctdlctcsbz`w`a`wca`aca`w`w`w`wbzcs`n`nak`n`ncscsbzbzbh`w`w`wcacacsas````ddaqdl",
"ctctctct`rak`ncsbzbhbzbhbzbzcs`n`nakakakak`ncscsbzbz`w`w`w`wcaca`w`d```````hdbct",
"ctctctctct`ndeakakak`n`n`nakakakakakakak`n`ncsbzbhbh`w`w`wcaca`adedd``````ck`rct",
"ctctctctctctbededeakb`akdeakakbeakakak`ncscsbzbzbh`w`wcacacacabe`hay`````hbadlct",
"ctctctctctctctbebkckdedeb`debeb`akakak`ncsbzbzbh`w`w`w`aca`abe`h``````dddedldlct",
"ctctctctctctctctbackdededeakdeakakak`ncscsbzbh`w`wcacaca`wck`hay````ayckdmdlctct",
"ctctctctctctctctctde`ddeb`deakakakakcscsbzbhbh`w`wca`wak`ddday````ddasdmctctctct",
"ctctctctctctctctctctdeas`ddeakakak`ncscsbzbh`w`wbhak`d`h````````ay`ddmctctctctct",
"ctctctctctctctctctct`rbaas`has`dckbeakakakakde`dasdd``````````ddckdmctctctctctct",
"ctctctctctctctctctctct`rdmck`h`h`h`h`h`h`hdddday``````````ddasbedmdlctctctctctct",
"ctctctctctctctctctctctct`r`rbaaq`hdd````````````````dd`hasdedmbodlctctctctctctct",
"ctctctctctctctctctctctctctct`r`rdmdeaqasas`h`hasasaqckbabobodldlctctctctctctctct",
"ctctctctctctctctctctctctctctctctctctct`r`rdmdmdmdm`rdlbobodldlctctctctctctctctct",
};
