/* XPM */
char *save_man_right_icon[] = {
/* width height ncolors chars_per_pixel */
"40 40 24 2",
/* colors */
"dp c #DFDF8F",
"dl c #555554",
"dj c #9C9C72",
"dg c #D6D68A",
"df c #D8D88C",
"ct c #545454",
"cn c #D7D78C",
"cl c #585855",
"ch c #DBDB8D",
"cg c #947376",
"bu c #9E9E73",
"bn c #DADA8D",
"bj c #979770",
"az c #5A5A56",
"av c #939363",
"at c #DDDD8E",
"ap c #5C5C69",
"ah c #595956",
"`o c #585856",
"`e c #D9D98C",
"O  c #3299CC",
"o  c #FFFFFF",
"X  c #FFB0B0",
".  c #000000",
/* pixels */
"bjdgdpdpdpdpdpdpdpatbuazdlctctctctctctdlbjdgdpdpdpdpdpdpdpatbuazctctctctctctctct",
"dlbjcndpdpdpdpdpdpdpatbuazctctctctctctctahbj`edpdpdpdpdpdpdpdfbjahctctctctctctct",
"ct`objdgdpdpdpdpdpdpdpbnbuazctctctctctctctazdj`edpdpdpdpdpdpdpdfbjahctctctctctct",
"ctctdlbjcndpdpdpdpdpdpdpbndjazctctctctctctctahdj`edpdpdpdpdpdpdpdfbjahctctctctct",
"ctctct`objcndpdpdpdpdpdpdpbndjazctctctctctctctazdjbndpdpdpdpdpdpdpdfbjahctctctct",
"ctctctct`objdfdpdpdpdpdpdpdpbndjazctctctctctctctahdj`edpdpdpdpdpdpdpcnbjahctctct",
"ctctctctct`objcndpdpdpdpdpdp. . . . . ctctctctctctazdjbndpdpdpdpdpdpdpdfbjahctct",
"ctctctctctct`objdfdpdpdpdp. X X X X X . ctctctctctctazdjbndpdpdpdpdpdpdpcnbjahct",
"ctctctctctctctahbjdfdpdp. X X X X X X X . ctctctctctctazdjbndpdpdpdpdpdpdpdfbj`o",
"clctctctctctctct`objdfdp. X X X X X X X X . ctctctctctctazdjbndpdpdpdpdpdpdpdfdj",
"bjazctctctctctctctahbjdf. X X X X X X . . . . . . ctctctctazdjbndpdpdpdpdpdpdpat",
"chbuazctctctctctctctahbj. X X X X X . o o o o . o . ctctctctazdjbndpdpdpdpdpdpdp",
"dpchbuazdlctctctctctctah. X X X X . . O O O O O . . ctctctctctazbubndpdpdpdpdpdp",
"dpdpatbuazctctctctctctct. X X X X . o o o O O O X . ctctctctctctazbubndpdpdpdpdp",
"dpdpdpchbuazctctctctctct. X X X X . o o o O O O X X . ctctctctctctazbubndpdpdpdp",
"dpdpdpdpchbuazctctctctct. X X X X X . o o o O X X X X . ctctctctctctazbubndpdpdp",
"dpdpdpdpdpbnbuazctctctct. X X X X X X . . . X X X X X X . ctctctctctctazbubndpdp",
"dpdpdpdpdpdpbnbuazctctct. X X X X X X X X X X X X X X X X . ctctctctctctazbubndp",
"dpdpdpdpdpdpdpbndjahctct. X X . . X X X X X X X X X X X X X . ctctctctctctazbubn",
"atdpdpdpdpdpdpdpcnbjazct. X . X X X X X X X X X X X X X X X . ctctctctctctctazbj",
"djcndpdpdpdpdpdpdpcnbuazct. X X X X X X X X X X X X X X X X X . ctctctctctctctcl",
"`objcndpdpdpdpdpdpdpbnbuaz. X X X X X X X X X X X X X X X X X . ahctctctctctctct",
"ct`objdgdpdpdpdpdpdpdpbn. X X X X X X X X X X X X X X X X X X . bjahctctctctctct",
"ctctdlbjcndpdpdpdpdpdpdp. X X X X X X X X X X X X X X X X X X . dfbjahctctctctct",
"ctctct`odjchdpdpdpdpdpdp. X X X X X X X X X X X X X X X X X X . dpdfbjahctctctct",
"ctctctctazbuchdpdpdpdpdp. X X X X X X X X X X X X X X X X X . dpdpdpcnbjahctctct",
"ctctctctctazbuchdpdpdpdp. X X X X X X X X X X X X X X X X X . dpdpdpdpdfbjahctct",
"ctctctctct`oazbuchdpdpdpdp. X X X . . . X X X X X X X X X . dpdpdpdpdpdpcnbjahct",
"ctctctctctctdlazbuatdpdpdpdp. . . . X . . . X X X X X . . bndpdpdpdpdpdpdpdfbj`o",
"dlctctctctctct`oazbuchdpdpdpdpdp. X X . X X . . . . . ctazdjbndpdpdpdpdpdpdpdfdj",
"av`octctctctctctdlazbuatdpdpdpdp. X X . X X . ctctctctctctazdjbndpdpdpdpdpdpdpat",
"dgbj`octctctctctctahazbuchdpdpdp. X X . X X . ctctctctctctctazdjbndpdpdpdpdpdpdp",
"dpcnbjdlctctctctctctdlazbuatdpdp. X X X . . . . . ct. . ctctctazbubndpdpdpdpdpdp",
"dpatdgbj`octctctctctdlazazbuch. X X X . X X X X X . . X . . ctctazbubndpdpdpdpdp",
"dpdpdpcnbjdlctctctctctctdlaz. X X X X X X X X X X X X . X X . ctctazbubndpdpdpdp",
"dpdpdpatdgbj`octctctctctdlaz. . . . . . . . . . . . . . . . . ctctctazbubndpdpdp",
"dpdpdpdpdpcnbjdlctctctctctct`oazbudpdpdpdpdpdpdpatcnavctctctctctctctctazbubndpdp",
"dpdpdpdpdpatdgbj`octctctctctdlazazbuatdpdpdpdpdpdpbncnav`octctctctctctctazbubndp",
"dpdpdpdpdpdpdpdgbjdlctctctctctct`oazbudpdpdpdpdpdpdpatcnavctctctctctctctctazbubn",
"dpdpdpdpdpdpdpchdgavdlctctctctctdlazapbudpdpdpdpdpdpdpcndgcgdlctctctctctctdlazbu"
};
