/* XPM */
char *save_man_up_icon[] = {
/* width height ncolors chars_per_pixel */
"40 40 23 2",
/* colors */
"dp c #DFDF8F",
"dl c #555554",
"dj c #9C9C72",
"dg c #D6D68A",
"df c #D8D88C",
"ct c #545454",
"cn c #D7D78C",
"cl c #585855",
"ch c #DBDB8D",
"cg c #947376",
"bu c #9E9E73",
"bn c #DADA8D",
"bj c #979770",
"az c #5A5A56",
"av c #939363",
"at c #DDDD8E",
"ap c #5C5C69",
"ah c #595956",
"`o c #585856",
"`e c #D9D98C",
"o  c #3299CC",
"X  c #FFB0B0",
".  c #000000",
/* pixels */
"bjdgdpdpdpdpdpdpdpatbuazdlctctctctctctdlbjdgdpdpdpdpdpdpdpatbuazctctctctctctctct",
"dlbjcndpdpdpdpdpdpdpatbuazctctctctctctctahbj`edpdpdpdpdpdpdpdfbjahctctctctctctct",
"ct`objdgdpdpdpdpdpdpdpbnbuazctctctctctctctazdj`edpdpdpdpdpdpdpdfbjahctctctctctct",
"ctctdlbjcndpdpdpdpdpdpdpbndjazctctctctctctctahdj`edpdpdpdpdpdpdpdfbjahctctctctct",
"ctctct`objcndpdpdpdpdpdpdpbndjazctctctctctctctazdjbndpdpdpdpdpdpdpdfbjahctctctct",
"ctctctct`objdfdpdpdpdpdpdpdpbndjazctctctctctctctahdj`edpdpdpdpdpdpdpcnbjahctctct",
"ctctctctct`objcndpdpdpdpdpdpdpbndj. . . . . . ctctazdjbndpdpdpdpdpdpdpdfbjahctct",
"ctctctctctct`objdfdpdpdpdpdpdpdp. X X X X X X . ctctazdjbndpdpdpdpdpdpdpcnbjahct",
"ctctctctctctctahbjdfdpdpdpdpdp. X X X X X X X X . ctctazdjbndpdpdpdpdpdpdpdfbj`o",
"clctctctctctctct`objdfdpdpdpdp. X X X X X X X X . ctctctazdjbndpdpdpdpdpdpdpdfdj",
"bjazctctctctctctctahbjdfdpdp. . X X X X X X X X . . ctctctazdjbndpdpdpdpdpdpdpat",
"chbuazctctctctctctctahbjdf. o . X X X X X X X X . o . ctctctazdjbndpdpdpdpdpdpdp",
"dpchbuazdlctctctctctctah. o . X X X X X X X X X X . o . ctctctazbubndpdpdpdpdpdp",
"dpdpatbuazctctctctctctct. o . X X X X X X X X X X . o . ctctctctazbubndpdpdpdpdp",
"dpdpdpchbuazctctctctctct. . X X X X X X X X X X X X . . ctctctctctazbubndpdpdpdp",
"dpdpdpdpchbuazctctctctctct. X X X X X X X X X X X X . ctctctctctctctazbubndpdpdp",
"dpdpdpdpdpbnbuazctctctct. X X X X X X X X X X X X X X . ctctctctctctctazbubndpdp",
"dpdpdpdpdpdpbnbuazctctct. X X X X X X X X X X X X X X . ahctctctctctctctazbubndp",
"dpdpdpdpdpdpdpbndjahct. X X X X X X X X X X X X X X X X . ahctctctctctctctazbubn",
"atdpdpdpdpdpdpdpcnbjaz. X X X X X X X X X X X X X X X X . bjahctctctctctctctazbj",
"djcndpdpdpdpdpdpdpcn. X X X X X X X X X X X X X X X X X X . bjahctctctctctctctcl",
"`objcndpdpdpdpdpdpdp. X X X X X X X X X X X X X X X X X X . dfbjahctctctctctctct",
"ct`objdgdpdpdpdpdp. X X X X X X X X X X X X X X X X X X X X . dfbjahctctctctctct",
"ctctdlbjcndpdpdpdp. X X X X X X X X X X X X X X X X X X X X . dpdfbjahctctctctct",
"ctctct`odjchdpdp. X X X X X X X X X X X X X X X X X X X X X X . dpdfbjahctctctct",
"ctctctctazbuchdp. X X X X X X X X X X X X X X X X X X X X X X . dpdpcnbjahctctct",
"ctctctctctazbuch. X X X X X X X X X X X X X X X X X X X X X X . dpdpdpdfbjahctct",
"ctctctctct`oazbu. X X X X X X X X X X X X X X X X X X X X X X . dpdpdpdpcnbjahct",
"ctctctctctctdlazbu. . . . . . . X X . . . . X X . . . . . . . dpdpdpdpdpdpdfbj`o",
"dlctctctctctct`oazbuchdpdpdp. X X . cnav`oct. X X . ctctazdjbndpdpdpdpdpdpdpdfdj",
"av`octctctctctctdlazbuatdpdp. X X . dpcnbjct. X X . ctctctazdjbndpdpdpdpdpdpdpat",
"dgbj`octctctctctctahazbuchdp. X X . dpbndgav. X X . ctctctctazdjbndpdpdpdpdpdpdp",
"dpcnbjdlctctctctctctdl. . . . X X . dpdpatdg. X X . . . . ctctazbubndpdpdpdpdpdp",
"dpatdgbj`octctctct. . X X . X X X X . dpdp. X X X X . X X . . ctazbubndpdpdpdpdp",
"dpdpdpcnbjdlctct. X X X X X X X X X X . . X X X X X X X X X X . ctazbubndpdpdpdp",
"dpdpdpatdgbj`oct. . . . . . . . . . . . . . . . . . . . . . . . ctctazbubndpdpdp",
"dpdpdpdpdpcnbjdlctctctctctct`oazbudpdpdpdpdpdpdpatcnavctctctctctctctctazbubndpdp",
"dpdpdpdpdpatdgbj`octctctctctdlazazbuatdpdpdpdpdpdpbncnav`octctctctctctctazbubndp",
"dpdpdpdpdpdpdpdgbjdlctctctctctct`oazbudpdpdpdpdpdpdpatcnavctctctctctctctctazbubn",
"dpdpdpdpdpdpdpchdgavdlctctctctctdlazapbudpdpdpdpdpdpdpcndgcgdlctctctctctctdlazbu"
};
