/* XPM */
char *save_man_left_icon[] = {
/* width height ncolors chars_per_pixel */
"40 40 24 2",
/* colors */
"dp c #DFDF8F",
"dl c #555554",
"dj c #9C9C72",
"dg c #D6D68A",
"df c #D8D88C",
"ct c #545454",
"cn c #D7D78C",
"cl c #585855",
"ch c #DBDB8D",
"cg c #947376",
"bu c #9E9E73",
"bn c #DADA8D",
"bj c #979770",
"az c #5A5A56",
"av c #939363",
"at c #DDDD8E",
"ap c #5C5C69",
"ah c #595956",
"`o c #585856",
"`e c #D9D98C",
"O  c #3299CC",
"o  c #FFFFFF",
"X  c #FFB0B0",
".  c #000000",
/* pixels */
"bjdgdpdpdpdpdpdpdpatbuazdlctctctctctctdlbjdgdpdpdpdpdpdpdpatbuazctctctctctctctct",
"dlbjcndpdpdpdpdpdpdpatbuazctctctctctctctahbj`edpdpdpdpdpdpdpdfbjahctctctctctctct",
"ct`objdgdpdpdpdpdpdpdpbnbuazctctctctctctctazdj`edpdpdpdpdpdpdpdfbjahctctctctctct",
"ctctdlbjcndpdpdpdpdpdpdpbndjazctctctctctctctahdj`edpdpdpdpdpdpdpdfbjahctctctctct",
"ctctct`objcndpdpdpdpdpdpdpbndjazctctctctctctctazdjbndpdpdpdpdpdpdpdfbjahctctctct",
"ctctctct`objdfdpdpdpdpdpdpdpbndjazctctctctctctctahdj`edpdpdpdpdpdpdpcnbjahctctct",
"ctctctctct`objcndpdpdpdpdpdpdpbndjazctctct. . . . . djbndpdpdpdpdpdpdpdfbjahctct",
"ctctctctctct`objdfdpdpdpdpdpdpdpbndjazct. X X X X X . djbndpdpdpdpdpdpdpcnbjahct",
"ctctctctctctctahbjdfdpdpdpdpdpdpdp`edj. X X X X X X X . djbndpdpdpdpdpdpdpdfbj`o",
"clctctctctctctct`objdfdpdpdpdpdpdpdp. X X X X X X X X . azdjbndpdpdpdpdpdpdpdfdj",
"bjazctctctctctctctahbjdfdpdpdp. . . . . . X X X X X X . ctazdjbndpdpdpdpdpdpdpat",
"chbuazctctctctctctctahbjdfdp. o . o o o o . X X X X X . ctctazdjbndpdpdpdpdpdpdp",
"dpchbuazdlctctctctctctahbjdf. . O O O O O . . X X X X . ctctctazbubndpdpdpdpdpdp",
"dpdpatbuazctctctctctctctahbj. X O O O o o o . X X X X . ctctctctazbubndpdpdpdpdp",
"dpdpdpchbuazctctctctctctct. X X O O O o o o . X X X X . ctctctctctazbubndpdpdpdp",
"dpdpdpdpchbuazctctctctct. X X X X O o o o . X X X X X . ctctctctctctazbubndpdpdp",
"dpdpdpdpdpbnbuazctctct. X X X X X X . . . X X X X X X . ctctctctctctctazbubndpdp",
"dpdpdpdpdpdpbnbuazct. X X X X X X X X X X X X X X X X . ahctctctctctctctazbubndp",
"dpdpdpdpdpdpdpbndj. X X X X X X X X X X X X X . . X X . bjahctctctctctctctazbubn",
"atdpdpdpdpdpdpdpcn. X X X X X X X X X X X X X X X . X . `ebjahctctctctctctctazbj",
"djcndpdpdpdpdpdp. X X X X X X X X X X X X X X X X X . dpdp`ebjahctctctctctctctcl",
"`objcndpdpdpdpdp. X X X X X X X X X X X X X X X X X . dpdpdpdfbjahctctctctctctct",
"ct`objdgdpdpdpdp. X X X X X X X X X X X X X X X X X X . dpdpdpdfbjahctctctctctct",
"ctctdlbjcndpdpdp. X X X X X X X X X X X X X X X X X X . dpdpdpdpdfbjahctctctctct",
"ctctct`odjchdpdp. X X X X X X X X X X X X X X X X X X . dpdpdpdpdpdfbjahctctctct",
"ctctctctazbuchdpdp. X X X X X X X X X X X X X X X X X . dpdpdpdpdpdpcnbjahctctct",
"ctctctctctazbuchdp. X X X X X X X X X X X X X X X X X . dpdpdpdpdpdpdpdfbjahctct",
"ctctctctct`oazbuchdp. X X X X X X X X X . . . X X X . djbndpdpdpdpdpdpdpcnbjahct",
"ctctctctctctdlazbuatdp. . X X X X X . . . X . . . . ctazdjbndpdpdpdpdpdpdpdfbj`o",
"dlctctctctctct`oazbuchdpdp. . . . . X X . X X . ctctctctazdjbndpdpdpdpdpdpdpdfdj",
"av`octctctctctctdlazbuatdpdpdpdpdp. X X . X X . ctctctctctazdjbndpdpdpdpdpdpdpat",
"dgbj`octctctctctctahazbuchdpdpdpdp. X X . X X . ctctctctctctazdjbndpdpdpdpdpdpdp",
"dpcnbjdlctctctctctctdlaz. . dp. . . . . X X X . ctctctctctctctazbubndpdpdpdpdpdp",
"dpatdgbj`octctctctct. . X . . X X X X X . X X X . ctctctctctctctazbubndpdpdpdpdp",
"dpdpdpcnbjdlctctct. X X . X X X X X X X X X X X X . ctctctctctctctazbubndpdpdpdp",
"dpdpdpatdgbj`octct. . . . . . . . . . . . . . . . . `octctctctctctctazbubndpdpdp",
"dpdpdpdpdpcnbjdlctctctctctct`oazbudpdpdpdpdpdpdpatcnavctctctctctctctctazbubndpdp",
"dpdpdpdpdpatdgbj`octctctctctdlazazbuatdpdpdpdpdpdpbncnav`octctctctctctctazbubndp",
"dpdpdpdpdpdpdpdgbjdlctctctctctct`oazbudpdpdpdpdpdpdpatcnavctctctctctctctctazbubn",
"dpdpdpdpdpdpdpchdgavdlctctctctctdlazapbudpdpdpdpdpdpdpcndgcgdlctctctctctctdlazbu"
};
