/* XPM */
char *southwall_icon[] = {
/* width height ncolors chars_per_pixel */
"40 40 17 2",
/* colors */
"`f c #7F4D34",
"`g c #7D4B32",
"`u c #865741",
"`x c #CC9275",
"ae c #67402C",
"ar c #7D603A",
"bc c #7C4B32",
"bp c #926740",
"bq c #804E35",
"br c #7E4C33",
"c` c #B27A5F",
"cd c #715336",
"cf c #573423",
"cq c #5E3926",
"cz c #643C28",
"da c #C78E72",
"dh c #7B4A31",
/* pixels */
"`x`x`x`x`xc`br`gbcdhdhbccdbccdbccd`farbq`f`g`gbcbccdbccdcdcdcddhbcbcczcfcfcfcfcf",
"`x`x`x`x`xc`br`gbcbcbc`g`g`g`g`g`g`g`g`g`g`g`g`g`g`g`g`gdhdhdhbc`gbcczcfcfcfcfcf",
"`x`x`x`x`xc`br`g`g`g`g`g`g`g`g`g`g`g`g`g`g`g`g`g`g`g`g`gdh`g`g`g`gbcczcfcfcfcfcf",
"`x`x`x`x`xc`br`g`g`g`g`g`g`g`g`g`g`g`g`g`g`g`g`g`g`g`g`g`g`g`g`g`gbcczcfcfcfcfcf",
"`x`x`x`x`xc`br`g`g`g`g`g`g`g`g`g`g`g`g`g`g`g`g`g`g`g`g`g`g`g`g`g`gbcczcfcfcfcfcf",
"`x`x`x`x`xc`br`g`g`g`g`g`g`g`g`g`g`g`g`g`g`g`g`g`g`g`g`g`g`g`g`g`gbcczcfcfcfcfcf",
"`x`x`x`x`xc`br`g`g`g`g`g`g`g`g`g`g`g`g`g`g`g`g`g`g`g`g`g`g`g`g`g`gbcczcfcfcfcfcf",
"`x`x`x`x`xc`br`g`g`g`g`g`g`g`g`g`g`g`g`g`g`g`g`g`g`g`g`g`g`g`g`g`gbcczcfcfcfcfcf",
"`x`x`x`x`xc`br`g`g`g`g`g`g`g`g`g`g`g`g`g`g`g`g`g`g`g`g`g`g`g`g`g`gbcczcfcfcfcfcf",
"`x`x`x`x`xc`br`g`g`g`g`g`g`g`g`g`g`g`g`g`g`g`g`g`g`g`g`g`g`g`g`g`gbcczcfcfcfcfcf",
"`x`x`x`x`xc`br`g`g`g`g`g`g`g`g`g`g`g`g`g`g`g`g`g`g`g`g`g`g`g`g`g`gbcczcfcfcfcfcf",
"`x`x`x`x`xc`br`g`g`g`g`g`g`g`g`g`g`g`g`g`g`g`g`g`g`g`g`g`g`g`g`g`gbcczcfcfcfcfcf",
"`x`x`x`x`xc`br`g`g`g`g`g`g`g`g`g`g`g`g`g`g`g`g`g`g`g`g`g`g`g`g`g`gbcczcfcfcfcfcf",
"`x`x`x`x`xc`br`g`g`g`g`g`g`g`g`g`g`g`g`g`g`g`g`g`g`g`g`g`g`g`g`g`gbcczcfcfcfcfcf",
"`x`x`x`x`xc`br`g`g`g`g`g`g`g`g`g`g`g`g`g`g`g`g`g`g`g`g`g`g`g`g`g`gbcczcfcfcfcfcf",
"`x`x`x`x`xc`br`g`g`g`g`g`g`g`g`g`g`g`g`g`g`g`g`g`g`g`g`g`g`g`g`g`gbcczcfcfcfcfcf",
"`x`x`x`x`xc`br`g`g`g`g`g`g`g`g`g`g`g`g`g`g`g`g`g`g`g`g`g`g`g`g`g`gbcczcfcfcfcfcf",
"`x`x`x`x`xc`br`g`g`g`g`g`g`g`g`g`g`g`g`g`g`g`g`g`g`g`g`g`g`g`g`g`gbcczcfcfcfcfcf",
"`x`x`x`x`xc`br`g`g`g`g`g`g`g`g`g`g`g`g`g`g`g`g`g`g`g`g`g`g`g`g`g`gbcczcfcfcfcfcf",
"`x`x`x`x`xc`br`g`g`g`g`g`g`g`g`g`g`g`g`g`g`g`g`g`g`g`g`g`g`g`g`g`gbcczcfcfcfcfcf",
"`x`x`x`x`xc`br`g`g`g`g`g`g`g`g`g`g`g`g`g`g`g`g`g`g`g`g`g`g`g`g`g`gbcczcfcfcfcfcf",
"`x`x`x`x`xc`br`g`g`g`g`g`g`g`g`g`g`g`g`g`g`g`g`g`g`g`g`g`g`g`g`g`gbcczcfcfcfcfcf",
"`x`x`x`x`xc`br`g`g`g`g`g`g`g`g`g`g`g`g`g`g`g`g`g`g`g`g`g`g`g`g`g`gbcczcfcfcfcfcf",
"`x`x`x`x`xc`br`g`g`g`g`g`g`g`g`g`g`g`g`g`g`g`g`g`g`g`g`g`g`g`g`g`gbcczcfcfcfcfcf",
"`x`x`x`x`xc`br`g`g`g`g`g`g`g`g`g`g`g`g`g`g`g`g`g`g`g`g`g`g`g`g`g`gbcczcfcfcfcfcf",
"`x`x`x`x`xc`br`g`g`g`g`g`g`g`g`g`g`g`g`g`g`g`g`g`g`g`g`g`g`g`g`g`gbcczcfcfcfcfcf",
"`x`x`x`x`xc`br`g`g`g`g`g`g`g`g`g`g`g`g`g`g`g`g`g`g`g`g`g`g`g`g`g`gbcczcfcfcfcfcf",
"`x`x`x`x`xc`br`g`g`g`g`g`g`g`g`g`g`g`g`g`g`g`g`g`g`g`g`g`g`g`g`g`gbcczcfcfcfcfcf",
"`x`x`x`x`xc`br`g`g`g`g`g`g`g`g`g`g`g`g`g`g`g`g`g`g`g`g`g`g`g`g`g`gbcczcfcfcfcfcf",
"`x`x`x`x`xc`br`g`g`g`g`g`g`g`g`g`g`g`g`g`g`g`g`g`g`g`g`g`g`g`g`g`gbcczcfcfcfcfcf",
"`x`x`x`x`xc`br`g`g`g`g`g`g`g`g`g`g`g`g`g`g`g`g`g`g`g`g`g`g`g`g`g`gbcczcfcfcfcfcf",
"`x`x`x`x`xc`br`g`g`g`g`g`g`g`g`g`g`g`g`g`g`g`g`g`g`g`g`g`g`g`g`g`gbcczcfcfcfcfcf",
"`x`x`x`x`xc`br`g`g`g`g`g`g`g`g`g`g`g`g`g`g`g`g`g`g`g`g`g`g`g`g`g`gbcczcfcfcfcfcf",
"`x`x`x`x`xc`brbcbcbcbcbcbcbcbcbcbcbcbcbcbcbcbcbcbcbcbcbcbcbcbcbcbcbcczcfcfcfcfcf",
"`x`x`x`xda`uaeczczczczczczczczczczczczczczczczczczczczczczczczczczczcqcfcfcfcfcf",
"`x`x`xdabpcqcfcfcfcfcfcfcfcfcfcfcfcfcfcfcfcfcfcfcfcfcfcfcfcfcfcfcfcfcfcfcfcfcfcf",
"`x`xda`ucqcfcfcfcfcfcfcfcfcfcfcfcfcfcfcfcfcfcfcfcfcfcfcfcfcfcfcfcfcfcfcfcfcfcfcf",
"`xdabpcqcfcfcfcfcfcfcfcfcfcfcfcfcfcfcfcfcfcfcfcfcfcfcfcfcfcfcfcfcfcfcfcfcfcfcfcf",
"da`ucqcfcfcfcfcfcfcfcfcfcfcfcfcfcfcfcfcfcfcfcfcfcfcfcfcfcfcfcfcfcfcfcfcfcfcfcfcf",
"`ucqcfcfcfcfcfcfcfcfcfcfcfcfcfcfcfcfcfcfcfcfcfcfcfcfcfcfcfcfcfcfcfcfcfcfcfcfcfcf",
};
