/* XPM */
char *treasure_icon[] = {
/* width height ncolors chars_per_pixel */
"40 40 72 2",
/* colors */
"`` c #000000",
"`a c #4C486F",
"`d c #1A172A",
"`h c #07060A",
"`i c #2F2263",
"`k c #8A86A5",
"`m c #8D6EE7",
"`o c #585856",
"`p c #585681",
"`q c #322469",
"`r c #525250",
"`s c #3E2D82",
"`v c #35266F",
"`w c #474766",
"`z c #555042",
"ac c #43318D",
"ad c #1A1333",
"af c #5D5543",
"ah c #595956",
"ai c #523CAC",
"ak c #393851",
"am c #8460FE",
"ao c #6147CB",
"ap c #5C5C69",
"aq c #302E20",
"as c #0F0D1A",
"at c #DDDD8E",
"au c #514A33",
"av c #939363",
"aw c #48398A",
"ay c #000001",
"az c #5A5A56",
"b` c #271D4F",
"ba c #423F45",
"bb c #251B4D",
"be c #373644",
"bh c #454562",
"bj c #979770",
"bk c #211845",
"bm c #58585D",
"bn c #DADA8D",
"bo c #565551",
"bu c #9E9E73",
"bv c #584B6A",
"bz c #42425E",
"ca c #4E4E6D",
"cb c #BA998B",
"ce c #2C205C",
"cg c #947376",
"ch c #DBDB8D",
"ci c #16102F",
"ck c #27262F",
"cl c #585855",
"cm c #CFBAB6",
"cn c #D7D78C",
"cr c #8E8E97",
"ct c #545454",
"cv c #7253EC",
"cw c #372873",
"cy c #37305F",
"d` c #8080B7",
"db c #514B4A",
"dc c #3A2A79",
"dd c #020103",
"de c #2F2F39",
"df c #D8D88C",
"dg c #D6D68A",
"dj c #9C9C72",
"dl c #555554",
"dm c #504E45",
"dp c #DFDF8F",
"dq c #766B3F",
/* pixels */
"bjcndpdpdpdpdpdpdpatbuazdlctctctctctctdlbjdgdpdpdpdpdpdpdpatbuazctctctctctctctct",
"dlbjcndpdpdpdpdpdpdpatbuazctdl`wbv`a`a`a`wbjcbdgatdpdpdpdpdpdfbjahctctctctctctct",
"ct`objcndpdpdpdpdpdpdpdgcg`paiaiaiaiacacacdcdccaapcbdgatdpdpdpdfbjahctctctctctct",
"ctctdlbjcndpdpdpdpdgcmd`aoaoaoaoaoaoaiaiacacdccwcycy`wbudgdpdpdpdfbjahctctctctct",
"ctctct`objcndpdpcn`kaocvamamamcvcvaoaoaiaiac`sdc`qceb`b`azdgdgdpdpdfbjahctctctct",
"ctctctctclbjdgcmd`cvamamamamamamcvcvaoaoaiawacdc`q`ib`b`bkbebuatdpdpcnbjahctctct",
"ctctctctctclcgd`cvamamamamamamamamcvcvaoaiaiac`s`v`iceb`bkbkdebudpdpdpdfbjahctct",
"ctctctctctapaicvamam`m`m`m`mamamamcvaoaoaiaiac`scw`qceb`bkbkaddebudpdpdpcnbjahct",
"ctctctctctaicvamam`m`m`m`m`m`mamamcvcvaoaiaiac`sdc`qceb`bbbkadadbebudpdpdpdfbj`o",
"clctctct`paoamam`m`m`m`m`m`mamamamcvaoaoaiaiac`scw`q`ib`bbbkbkadasaqdjatdpdpdfdj",
"bjazctbmaicvcvam`m`m`m`m`m`m`mamcvcvcvaoaiaiac`sdc`qcecebbbkadadcias`dbudpdpdpat",
"chbubm`aaocvamam`m`m`m`m`mamamamcvcvaoaoaiacac`scw`qceb`bbbkbkadcias`haqdgdpdpdp",
"dpchdjaiaocvcvam`m`m`m`m`mamamcvcvaoaoaiaiacac`s`v`qcecebbbkbkadciciasayaudgdpdp",
"dpdpcbaiaoaoamamamamamamamamcvcvaoaoaiaiaiac`sdc`v`qceb`bbbkbkadciciasas`havdpdp",
"dpatcraiaicvcvcvamamamamamcvcvaoaoaoaiaiacac`sdc`v`icecebbbkbkadciciciasddaudgdp",
"dpcn`paiaiaoaocvcvcvcvcvcvaoaoaoaoaiaiawacacdccw`v`iceceb`bkbkadadciciasdd`hbudp",
"dpdgawawaiaiaoaoaoaoaoaoaoaoaoaiaiaiacaiac`sdccw`q`iceceb`bbbkbkadadadci`hdddqat",
"dgdgawacaiaiaiaiaoaoaoaoaoaoaiaiacaiac`s`sdcdc`v`q`i`iceb`bbbkbkbkadadci`h``aqdg",
"atcbcw`sacacaiaiaiaiaiaiaiaiaiacaiac`s`s`sdccw`v`q`q`iceceb`bbbkbkbkadadas``asbu",
"dgdgcydc`sacacaiacaiacaiacacacacac`s`s`sdccwcw`v`q`q`icececeb`b`bbbkbkad`hdd`hdq",
"bjcbbh`vcwdc`s`sacacacacacacac`s`s`sdcdccwcw`v`v`v`q`q`icecececeb`bbbkadas``ddba",
"ctavbz`i`q`vcwdcdc`s`s`s`s`sdcdcdcdccwcwcwcw`v`v`v`v`q`q`q`i`iceceb`bbad`h````ck",
"ctctcecece`i`q`v`v`vcw`vcwcwcwcw`v`v`v`v`v`v`v`v`v`v`v`v`v`v`q`iceb`bbaddday``ck",
"ctdlakb`b`b`ce`i`i`i`q`q`q`q`q`q`q`q`q`v`v`v`vcw`vcwcwcwdccw`v`q`icebbcidd``ddde",
"ctctdbbbbbb`b`cecececececece`i`i`i`i`q`q`q`v`vcwcwdcdcdcdcdcdc`v`icebkas````ddba",
"ctct`rdebkbkbkbbbbb`b`ceb`cececece`i`i`i`q`q`vcwdcdc`s`s`s`sdccw`icebk`h``dd`hba",
"ctctctakadbkbkbkbkbbbkbbbbb`b`b`cecece`i`q`q`vdcdc`s`s`s`s`sdc`v`ib`ci``````asbo",
"ctctctctckadadadbkbkbkbkbkbkbbb`b`b`cece`i`qcwdc`s`s`sac`s`sdc`vcebk`h````ddaqdl",
"ctctctctbaadadadadadadbkbkbkbkbkbbb`cece`i`vcwdc`s`s`sac`sdccw`qb`asay````asdqap",
"dlctctctctbeciciciadadadadadbkbkbkbbb`ce`i`vcwdc`s`s`s`s`sdc`vceaddday``ddafcndj",
"av`octctct`rdeasciciciciciadadbkbkbkb`ce`i`qcwcwdcdc`sdccw`vcead`hayay``asbudpdp",
"dgbj`octctctdbdeasasasciciciadadbkbkb`ce`i`i`vcwcwdccw`v`qcead`hay`````hdqdpdpdp",
"atdgbjdlctctct`rdeasciasciciciadbkbkbbb`cece`i`q`q`q`q`ib`ad`hayay``ddaudgdpdpdp",
"dpatdgbj`octctct`rdeasasasciciadadbkbkbbb`cececececeb`bkasdday``````aqdgdpdpdpdp",
"dpdpdpdgbjdlctctct`rckasasciciciadadbkbkbkbbbbb`bbbkas`hayay````ayasavdgdgdpdpdp",
"dpdpdpatdgbj`octctct`rde`hddasasciadadadadadcici`hddayay``````dd`ddmctdjchdpdpdp",
"dpdpdpdpdpdgbjdlctctctctba`dddaydddd`h`h`h`hay``ayayay````ay`hdedmdlctazbubndpdp",
"dpdpdpdpdpatdgbj`octctctdl`zde`d`hddayayay````````````ddasckdmbodlctctctazbubndp",
"dpdpdpdpdpdpdpdgbjdlctctctdlcldmbadeaqaqas`h`hasaqaqdqavav`rctctctctctctctazbubn",
"dpdpdpdpdpdpdpchdgavdlctctctdldlbo`rbobubudgbubudgdgchcndgavdlctctctctctctdlazbu"
};
