/* XPM */
char *ulcorner_icon[] = {
/* width height ncolors chars_per_pixel */
"40 40 17 2",
/* colors */
"`f c #7F4D34",
"`g c #7D4B32",
"`x c #CC9275",
"ae c #67402C",
"ax c #F3E6DF",
"bq c #804E35",
"br c #7E4C33",
"c` c #B27A5F",
"cf c #573423",
"cm c #CFBAB6",
"cn c #D7D78C",
"cp c #B77F63",
"cq c #5E3926",
"cz c #643C28",
"dg c #D6D68A",
"dh c #7B4A31",
"dn c #BE8A6F",
/* pixels */
"axcm`x`x`x`x`x`x`x`x`x`x`x`x`x`x`x`x`x`x`x`x`x`x`x`x`x`x`x`x`x`x`x`x`x`x`x`x`x`x",
"cmaxcm`x`x`x`x`x`x`x`x`x`x`x`x`x`x`x`x`x`x`x`x`x`x`x`x`x`x`x`x`x`x`x`x`x`x`x`x`x",
"`xdgax`x`x`x`x`x`x`x`x`x`x`x`x`x`x`x`x`x`x`x`x`x`x`x`x`x`x`x`x`x`x`x`x`x`x`x`x`x",
"`x`xcmaxcm`x`x`x`x`x`x`x`x`x`x`x`x`x`x`x`x`x`x`x`x`x`x`x`x`x`x`x`x`x`x`x`x`x`x`x",
"`x`x`xcmax`x`x`x`x`x`x`x`x`x`x`x`x`x`x`x`x`x`x`x`x`x`x`x`x`x`x`x`x`x`x`x`x`x`x`x",
"`x`x`x`xcncmdncpcpcpcpcpcpcpcpcpcpcpcpcpcpcpcpcpcpcpcpcpcpcpcpcpcpcpcpcpcpcpcpcp",
"`x`x`x`x`xcpbqbqbqbqbqbqbqbqbqbqbqbqbqbqbqbqbqbqbqbqbqbqbqbqbqbqbqbqbqbqbqbqbqbq",
"`x`x`x`x`xc`bqbr`g`g`g`g`g`g`g`g`g`g`g`g`g`g`g`g`g`g`g`g`g`g`g`g`g`g`g`g`g`g`g`g",
"`x`x`x`x`xc``f`g`g`g`g`g`g`g`g`g`g`g`g`g`g`g`g`g`g`g`g`g`g`g`g`g`g`g`g`g`g`g`g`g",
"`x`x`x`x`xc`br`g`g`g`g`g`g`g`g`g`g`g`g`g`g`g`g`g`g`g`g`g`g`g`g`g`g`g`g`g`g`g`g`g",
"`x`x`x`x`xc``f`g`g`g`g`g`g`g`g`g`g`g`g`g`g`g`g`g`g`g`g`g`g`g`g`g`g`g`g`g`g`g`g`g",
"`x`x`x`x`xc`br`g`g`g`g`g`g`g`g`g`g`g`g`g`g`g`g`g`g`g`g`g`g`g`g`g`g`g`g`g`g`g`g`g",
"`x`x`x`x`xc``f`g`g`g`g`g`g`g`g`g`g`g`g`g`g`g`g`g`g`g`g`g`g`g`g`g`g`g`g`g`g`g`g`g",
"`x`x`x`x`xc`br`g`g`g`g`g`g`g`g`g`g`g`g`g`g`g`g`g`g`g`g`g`g`g`g`g`g`g`g`g`g`g`g`g",
"`x`x`x`x`xc`br`g`g`g`g`g`g`g`g`g`g`g`g`g`g`g`g`g`g`g`g`g`g`g`g`g`g`g`g`g`g`g`g`g",
"`x`x`x`x`xc`br`g`g`g`g`g`g`g`g`g`g`g`g`g`g`g`g`g`g`g`g`g`g`g`g`g`g`g`g`g`g`g`g`g",
"`x`x`x`x`xc`br`g`g`g`g`g`g`g`g`g`g`g`g`g`g`g`g`g`g`g`g`g`g`g`g`g`g`g`g`g`g`g`g`g",
"`x`x`x`x`xc`br`g`g`g`g`g`g`g`g`g`g`g`g`g`g`g`g`g`g`g`g`g`g`g`g`g`g`g`g`g`g`g`g`g",
"`x`x`x`x`xc`br`g`g`g`g`g`g`g`g`g`g`g`g`g`g`g`g`g`g`g`g`g`g`g`g`g`g`g`g`g`g`g`g`g",
"`x`x`x`x`xc`br`g`g`g`g`g`g`g`g`g`g`g`g`g`g`g`g`g`g`g`g`g`g`g`g`g`g`g`g`g`g`g`g`g",
"`x`x`x`x`xc`br`g`g`g`g`g`g`g`g`g`g`g`g`g`g`g`g`g`g`g`g`g`g`g`g`g`g`g`g`g`g`g`g`g",
"`x`x`x`x`xc`br`g`g`g`g`g`g`g`g`g`g`g`g`g`g`g`g`g`g`g`g`g`g`g`g`g`g`g`g`g`g`g`g`g",
"`x`x`x`x`xc`br`g`g`g`g`g`g`g`g`g`g`g`g`g`g`g`g`g`g`g`g`g`g`g`g`g`g`g`g`g`g`g`g`g",
"`x`x`x`x`xc`br`g`g`g`g`g`g`g`g`g`g`g`g`g`g`g`g`g`g`g`g`g`g`g`g`g`g`g`g`g`g`g`g`g",
"`x`x`x`x`xc`br`g`g`g`g`g`g`g`g`g`g`g`g`g`g`g`g`g`g`g`g`g`g`g`g`g`g`g`g`g`g`g`g`g",
"`x`x`x`x`xc`br`g`g`g`g`g`g`g`g`g`g`g`g`g`g`g`g`g`g`g`g`g`g`g`g`g`g`g`g`g`g`g`g`g",
"`x`x`x`x`xc`br`g`g`g`g`g`g`g`g`g`g`g`g`g`g`g`g`g`g`g`g`g`g`g`g`g`g`g`g`g`g`g`g`g",
"`x`x`x`x`xc`br`g`g`g`g`g`g`g`g`g`g`g`g`g`g`g`g`g`g`g`g`g`g`g`g`g`g`g`g`g`g`g`g`g",
"`x`x`x`x`xc`br`g`g`g`g`g`g`g`g`g`g`g`g`g`g`g`g`g`g`g`g`g`g`g`g`g`g`g`g`g`g`g`g`g",
"`x`x`x`x`xc`br`g`g`g`g`g`g`g`g`g`g`g`g`g`g`g`g`g`g`g`g`g`g`g`g`g`g`g`g`g`g`g`g`g",
"`x`x`x`x`xc`br`g`g`g`g`g`g`g`g`g`g`g`g`g`g`g`g`g`g`g`g`g`g`g`g`g`g`g`g`g`g`g`g`g",
"`x`x`x`x`xc`br`g`g`g`g`g`g`g`g`g`g`g`g`g`g`g`g`g`g`g`g`g`g`g`g`g`g`g`g`g`g`g`g`g",
"`x`x`x`x`xc`br`g`g`g`g`g`g`g`g`g`g`g`g`g`g`g`g`g`g`g`g`g`g`g`g`g`g`g`g`g`g`g`g`g",
"`x`x`x`x`xc`br`g`g`g`g`g`g`g`g`g`g`g`g`g`g`g`g`g`g`g`g`g`g`g`g`g`g`g`g`g`g`g`g`g",
"`x`x`x`x`xc`br`g`g`g`g`g`g`g`g`g`g`g`g`g`g`g`g`g`g`g`g`g`g`g`g`g`gdhaeaeaeaeaeae",
"`x`x`x`x`xc`br`g`g`g`g`g`g`g`g`g`g`g`g`g`g`g`g`g`g`g`g`g`g`g`g`g`gdhczcfcfcfcfcf",
"`x`x`x`x`xc`br`g`g`g`g`g`g`g`g`g`g`g`g`g`g`g`g`g`g`g`g`g`g`g`g`g`gdhcqcfcfcfcfcf",
"`x`x`x`x`xc`br`g`g`g`g`g`g`g`g`g`g`g`g`g`g`g`g`g`g`g`g`g`g`g`g`g`gdhczcfcfcfcfcf",
"`x`x`x`x`xc`br`g`g`g`g`g`g`g`g`g`g`g`g`g`g`g`g`g`g`g`g`g`g`g`g`g`gdhcqcfcfcfcfcf",
"`x`x`x`x`xc`br`g`g`g`g`g`g`g`g`g`g`g`g`g`g`g`g`g`g`g`g`g`g`g`g`g`gdhczcfcfcfcfcf",
};
