/* XPM */
char *urcorner_icon[] = {
/* width height ncolors chars_per_pixel */
"40 40 14 2",
/* colors */
"`g c #7D4B32",
"`u c #865741",
"`x c #CC9275",
"ae c #67402C",
"bc c #7C4B32",
"bf c #AE7959",
"bp c #926740",
"bq c #804E35",
"cf c #573423",
"cp c #B77F63",
"cq c #5E3926",
"cz c #643C28",
"da c #C78E72",
"dh c #7B4A31",
/* pixels */
"`x`x`x`x`x`x`x`x`x`x`x`x`x`x`x`x`x`x`x`x`x`x`x`x`x`x`x`x`x`x`x`x`x`x`x`x`x`xdabp",
"`x`x`x`x`x`x`x`x`x`x`x`x`x`x`x`x`x`x`x`x`x`x`x`x`x`x`x`x`x`x`x`x`x`x`x`x`x`xbpcq",
"`x`x`x`x`x`x`x`x`x`x`x`x`x`x`x`x`x`x`x`x`x`x`x`x`x`x`x`x`x`x`x`x`x`x`x`xdabpaecf",
"`x`x`x`x`x`x`x`x`x`x`x`x`x`x`x`x`x`x`x`x`x`x`x`x`x`x`x`x`x`x`x`x`x`x`x`xbpcqcfcf",
"`x`x`x`x`x`x`x`x`x`x`x`x`x`x`x`x`x`x`x`x`x`x`x`x`x`x`x`x`x`x`x`x`x`xdabpaecfcfcf",
"cpcpcpcpcpcpcpcpcpcpcpcpcpcpcpcpcpcpcpcpcpcpcpcpcpcpcpcpcpcpcpcpcpcpbpcqcfcfcfcf",
"bqbqbqbqbqbqbqbqbqbqbqbqbqbqbqbqbqbqbqbqbqbqbqbqbqbqbqbqbqbqbqbqbqbqaecfcfcfcfcf",
"`g`g`g`g`g`g`g`g`g`g`g`g`g`g`g`g`g`g`g`g`g`g`g`g`g`g`g`g`g`g`g`g`gbcczcfcfcfcfcf",
"`g`g`g`g`g`g`g`g`g`g`g`g`g`g`g`g`g`g`g`g`g`g`g`g`g`g`g`g`g`g`g`g`gbcczcfcfcfcfcf",
"`g`g`g`g`g`g`g`g`g`g`g`g`g`g`g`g`g`g`g`g`g`g`g`g`g`g`g`g`g`g`g`g`gbcczcfcfcfcfcf",
"`g`g`g`g`g`g`g`g`g`g`g`g`g`g`g`g`g`g`g`g`g`g`g`g`g`g`g`g`g`g`g`g`gbcczcfcfcfcfcf",
"`g`g`g`g`g`g`g`g`g`g`g`g`g`g`g`g`g`g`g`g`g`g`g`g`g`g`g`g`g`g`g`g`gbcczcfcfcfcfcf",
"`g`g`g`g`g`g`g`g`g`g`g`g`g`g`g`g`g`g`g`g`g`g`g`g`g`g`g`g`g`g`g`g`gbcczcfcfcfcfcf",
"`g`g`g`g`g`g`g`g`g`g`g`g`g`g`g`g`g`g`g`g`g`g`g`g`g`g`g`g`g`g`g`g`gbcczcfcfcfcfcf",
"`g`g`g`g`g`g`g`g`g`g`g`g`g`g`g`g`g`g`g`g`g`g`g`g`g`g`g`g`g`g`g`g`gbcczcfcfcfcfcf",
"`g`g`g`g`g`g`g`g`g`g`g`g`g`g`g`g`g`g`g`g`g`g`g`g`g`g`g`g`g`g`g`g`gbcczcfcfcfcfcf",
"`g`g`g`g`g`g`g`g`g`g`g`g`g`g`g`g`g`g`g`g`g`g`g`g`g`g`g`g`g`g`g`g`gbcczcfcfcfcfcf",
"`g`g`g`g`g`g`g`g`g`g`g`g`g`g`g`g`g`g`g`g`g`g`g`g`g`g`g`g`g`g`g`g`gbcczcfcfcfcfcf",
"`g`g`g`g`g`g`g`g`g`g`g`g`g`g`g`g`g`g`g`g`g`g`g`g`g`g`g`g`g`g`g`g`gbcczcfcfcfcfcf",
"`g`g`g`g`g`g`g`g`g`g`g`g`g`g`g`g`g`g`g`g`g`g`g`g`g`g`g`g`g`g`g`g`gbcczcfcfcfcfcf",
"`g`g`g`g`g`g`g`g`g`g`g`g`g`g`g`g`g`g`g`g`g`g`g`g`g`g`g`g`g`g`g`g`gbcczcfcfcfcfcf",
"`g`g`g`g`g`g`g`g`g`g`g`g`g`g`g`g`g`g`g`g`g`g`g`g`g`g`g`g`g`g`g`g`gbcczcfcfcfcfcf",
"`g`g`g`g`g`g`g`g`g`g`g`g`g`g`g`g`g`g`g`g`g`g`g`g`g`g`g`g`g`g`g`g`gbcczcfcfcfcfcf",
"`g`g`g`g`g`g`g`g`g`g`g`g`g`g`g`g`g`g`g`g`g`g`g`g`g`g`g`g`g`g`g`g`gbcczcfcfcfcfcf",
"`g`g`g`g`g`g`g`g`g`g`g`g`g`g`g`g`g`g`g`g`g`g`g`g`g`g`g`g`g`g`g`g`gbcczcfcfcfcfcf",
"`g`g`g`g`g`g`g`g`g`g`g`g`g`g`g`g`g`g`g`g`g`g`g`g`g`g`g`g`g`g`g`g`gbcczcfcfcfcfcf",
"`g`g`g`g`g`g`g`g`g`g`g`g`g`g`g`g`g`g`g`g`g`g`g`g`g`g`g`g`g`g`g`g`gbcczcfcfcfcfcf",
"`g`g`g`g`g`g`g`g`g`g`g`g`g`g`g`g`g`g`g`g`g`g`g`g`g`g`g`g`g`g`g`g`gbcczcfcfcfcfcf",
"`g`g`g`g`g`g`g`g`g`g`g`g`g`g`g`g`g`g`g`g`g`g`g`g`g`g`g`g`g`g`g`g`gbcczcfcfcfcfcf",
"`g`g`g`g`g`g`g`g`g`g`g`g`g`g`g`g`g`g`g`g`g`g`g`g`g`g`g`g`g`g`g`g`gbcczcfcfcfcfcf",
"`g`g`g`g`g`g`g`g`g`g`g`g`g`g`g`g`g`g`g`g`g`g`g`g`g`g`g`g`g`g`g`g`gbcczcfcfcfcfcf",
"`g`g`g`g`g`g`g`g`g`g`g`g`g`g`g`g`g`g`g`g`g`g`g`g`g`g`g`g`g`g`g`g`gbcczcfcfcfcfcf",
"`g`g`g`g`g`g`g`g`g`g`g`g`g`g`g`g`g`g`g`g`g`g`g`g`g`g`g`g`g`g`g`g`gbcczcfcfcfcfcf",
"`g`g`g`g`g`g`g`g`g`g`g`g`g`g`g`g`g`g`g`g`g`g`g`g`g`g`g`g`g`g`g`g`gbcczcfcfcfcfcf",
"aeaeaeaeae`u`g`g`g`g`g`g`g`g`g`g`g`g`g`g`g`g`g`g`g`g`g`g`g`g`g`g`gbcczcfcfcfcfcf",
"cfcfcfcqbpbf`g`g`g`g`g`g`g`g`g`g`g`g`g`g`g`g`g`g`g`g`g`g`g`g`g`g`gbcczcfcfcfcfcf",
"cfcfcqbp`xbfdh`g`g`g`g`g`g`g`g`g`g`g`g`g`g`g`g`g`g`g`g`g`g`g`g`g`gbcczcfcfcfcfcf",
"cfcqbpdadabf`g`g`g`g`g`g`g`g`g`g`g`g`g`g`g`g`g`g`g`g`g`g`g`g`g`g`gbcczcfcfcfcfcf",
"cqbp`x`x`xbfdh`g`g`g`g`g`g`g`g`g`g`g`g`g`g`g`g`g`g`g`g`g`g`g`g`g`gbcczcfcfcfcfcf",
"bp`x`x`xdabf`g`g`g`g`g`g`g`g`g`g`g`g`g`g`g`g`g`g`g`g`g`g`g`g`g`g`gbcczcfcfcfcfcf"
};
